# MagicaVoxel @ Ephtracy

# group
o 

# material
mtllib AirplanePropeller.mtl
usemtl palette

# normals
vn -1 0 0
vn 1 0 0
vn 0 0 1
vn 0 0 -1
vn 0 -1 0
vn 0 1 0

# texcoords
vt 0.0644531 0.5
vt 0.306641 0.5
vt 0.841797 0.5
vt 0.958984 0.5
vt 0.994141 0.5

# verts
v -0.4 -0.1 0.1
v -0.4 -0.1 -0.1
v -0.4 0.1 0.1
v -0.4 0.1 -0.1
v -0.3 -0.2 0.1
v -0.3 -0.2 -0.1
v -0.3 -0.1 0.7
v -0.3 -0.1 0.6
v -0.3 -0.1 0.5
v -0.3 -0.1 0.2
v -0.3 -0.1 0.1
v -0.3 -0.1 -0.1
v -0.3 -0.1 -0.2
v -0.3 -0.1 -0.5
v -0.3 -0.1 -0.6
v -0.3 -0.1 -0.7
v -0.3 0.1 0.7
v -0.3 0.1 0.6
v -0.3 0.1 0.5
v -0.3 0.1 0.2
v -0.3 0.1 0.1
v -0.3 0.1 -0.1
v -0.3 0.1 -0.2
v -0.3 0.1 -0.5
v -0.3 0.1 -0.6
v -0.3 0.1 -0.7
v -0.3 0.2 0.1
v -0.3 0.2 -0.1
v -0.1 0 0
v -0.1 0 -0.1
v -0.1 0.1 0
v -0.1 0.1 -0.1
v -0.3 0 0
v -0.3 0 -0.1
v -0.3 0.1 0
v -0.3 0.1 -0.1
v -0.2 -0.1 0.7
v -0.2 -0.1 0.6
v -0.2 -0.1 0.5
v -0.2 -0.1 0.2
v -0.2 -0.1 -0.2
v -0.2 -0.1 -0.5
v -0.2 -0.1 -0.6
v -0.2 -0.1 -0.7
v -0.2 0.1 0.7
v -0.2 0.1 0.6
v -0.2 0.1 0.5
v -0.2 0.1 0.2
v -0.2 0.1 -0.2
v -0.2 0.1 -0.5
v -0.2 0.1 -0.6
v -0.2 0.1 -0.7
v -0.1 -0.2 0.1
v -0.1 -0.2 -0.1
v -0.1 -0.1 0.2
v -0.1 -0.1 0.1
v -0.1 -0.1 -0.1
v -0.1 -0.1 -0.2
v -0.1 0.1 0.2
v -0.1 0.1 0.1
v -0.1 0.1 -0.1
v -0.1 0.1 -0.2
v -0.1 0.2 0.1
v -0.1 0.2 -0.1
v 0 -0.1 0.1
v 0 -0.1 -0.1
v 0 0.1 0.1
v 0 0.1 -0.1
v -0.3 -0.1 0.7
v -0.3 0.1 0.7
v -0.2 -0.1 0.7
v -0.2 0.1 0.7
v -0.2 -0.1 0.2
v -0.2 0.1 0.2
v -0.1 -0.1 0.2
v -0.1 0.1 0.2
v -0.4 -0.1 0.1
v -0.4 0.1 0.1
v -0.3 -0.2 0.1
v -0.3 -0.1 0.1
v -0.3 0.1 0.1
v -0.3 0.2 0.1
v -0.1 -0.2 0.1
v -0.1 -0.1 0.1
v -0.1 0.1 0.1
v -0.1 0.2 0.1
v 0 -0.1 0.1
v 0 0.1 0.1
v -0.3 0 -0.1
v -0.3 0.1 -0.1
v -0.1 0 -0.1
v -0.1 0.1 -0.1
v -0.3 0 0
v -0.3 0.1 0
v -0.1 0 0
v -0.1 0.1 0
v -0.4 -0.1 -0.1
v -0.4 0.1 -0.1
v -0.3 -0.2 -0.1
v -0.3 -0.1 -0.1
v -0.3 0.1 -0.1
v -0.3 0.2 -0.1
v -0.1 -0.2 -0.1
v -0.1 -0.1 -0.1
v -0.1 0.1 -0.1
v -0.1 0.2 -0.1
v 0 -0.1 -0.1
v 0 0.1 -0.1
v -0.2 -0.1 -0.2
v -0.2 0.1 -0.2
v -0.1 -0.1 -0.2
v -0.1 0.1 -0.2
v -0.3 -0.1 -0.7
v -0.3 0.1 -0.7
v -0.2 -0.1 -0.7
v -0.2 0.1 -0.7
v -0.3 -0.2 0.1
v -0.1 -0.2 0.1
v -0.3 -0.2 -0.1
v -0.1 -0.2 -0.1
v -0.3 -0.1 0.7
v -0.2 -0.1 0.7
v -0.3 -0.1 0.6
v -0.2 -0.1 0.6
v -0.3 -0.1 0.5
v -0.2 -0.1 0.5
v -0.3 -0.1 0.2
v -0.2 -0.1 0.2
v -0.1 -0.1 0.2
v -0.4 -0.1 0.1
v -0.3 -0.1 0.1
v -0.1 -0.1 0.1
v 0 -0.1 0.1
v -0.4 -0.1 -0.1
v -0.3 -0.1 -0.1
v -0.1 -0.1 -0.1
v 0 -0.1 -0.1
v -0.3 -0.1 -0.2
v -0.2 -0.1 -0.2
v -0.1 -0.1 -0.2
v -0.3 -0.1 -0.5
v -0.2 -0.1 -0.5
v -0.3 -0.1 -0.6
v -0.2 -0.1 -0.6
v -0.3 -0.1 -0.7
v -0.2 -0.1 -0.7
v -0.3 0.1 0
v -0.1 0.1 0
v -0.3 0.1 -0.1
v -0.1 0.1 -0.1
v -0.3 0 0
v -0.1 0 0
v -0.3 0 -0.1
v -0.1 0 -0.1
v -0.3 0.1 0.7
v -0.2 0.1 0.7
v -0.3 0.1 0.6
v -0.2 0.1 0.6
v -0.3 0.1 0.5
v -0.2 0.1 0.5
v -0.3 0.1 0.2
v -0.2 0.1 0.2
v -0.1 0.1 0.2
v -0.4 0.1 0.1
v -0.3 0.1 0.1
v -0.1 0.1 0.1
v 0 0.1 0.1
v -0.4 0.1 -0.1
v -0.3 0.1 -0.1
v -0.1 0.1 -0.1
v 0 0.1 -0.1
v -0.3 0.1 -0.2
v -0.2 0.1 -0.2
v -0.1 0.1 -0.2
v -0.3 0.1 -0.5
v -0.2 0.1 -0.5
v -0.3 0.1 -0.6
v -0.2 0.1 -0.6
v -0.3 0.1 -0.7
v -0.2 0.1 -0.7
v -0.3 0.2 0.1
v -0.1 0.2 0.1
v -0.3 0.2 -0.1
v -0.1 0.2 -0.1

# faces
f 3/1/1 2/1/1 1/1/1
f 4/1/1 2/1/1 3/1/1
f 11/3/1 6/3/1 5/3/1
f 12/3/1 6/3/1 11/3/1
f 17/5/1 8/5/1 7/5/1
f 18/4/1 9/4/1 8/4/1
f 18/5/1 8/5/1 17/5/1
f 19/5/1 10/5/1 9/5/1
f 19/4/1 9/4/1 18/4/1
f 20/3/1 11/3/1 10/3/1
f 20/5/1 10/5/1 19/5/1
f 21/3/1 11/3/1 20/3/1
f 22/3/1 13/3/1 12/3/1
f 23/5/1 14/5/1 13/5/1
f 23/3/1 13/3/1 22/3/1
f 24/4/1 15/4/1 14/4/1
f 24/5/1 14/5/1 23/5/1
f 25/5/1 16/5/1 15/5/1
f 25/4/1 15/4/1 24/4/1
f 26/5/1 16/5/1 25/5/1
f 27/3/1 22/3/1 21/3/1
f 28/3/1 22/3/1 27/3/1
f 31/5/1 30/5/1 29/5/1
f 32/5/1 30/5/1 31/5/1
f 33/1/2 34/1/2 35/1/2
f 35/1/2 34/1/2 36/1/2
f 37/5/2 38/5/2 45/5/2
f 38/4/2 39/4/2 46/4/2
f 45/5/2 38/5/2 46/5/2
f 39/5/2 40/5/2 47/5/2
f 46/4/2 39/4/2 47/4/2
f 47/5/2 40/5/2 48/5/2
f 41/5/2 42/5/2 49/5/2
f 42/4/2 43/4/2 50/4/2
f 49/5/2 42/5/2 50/5/2
f 43/5/2 44/5/2 51/5/2
f 50/4/2 43/4/2 51/4/2
f 51/5/2 44/5/2 52/5/2
f 53/3/2 54/3/2 56/3/2
f 56/3/2 54/3/2 57/3/2
f 55/3/2 56/3/2 59/3/2
f 59/3/2 56/3/2 60/3/2
f 57/3/2 58/3/2 61/3/2
f 61/3/2 58/3/2 62/3/2
f 60/3/2 61/3/2 63/3/2
f 63/3/2 61/3/2 64/3/2
f 65/5/2 66/5/2 67/5/2
f 67/5/2 66/5/2 68/5/2
f 71/5/3 70/5/3 69/5/3
f 72/5/3 70/5/3 71/5/3
f 75/3/3 74/3/3 73/3/3
f 76/3/3 74/3/3 75/3/3
f 80/1/3 78/1/3 77/1/3
f 81/1/3 78/1/3 80/1/3
f 83/3/3 80/3/3 79/3/3
f 84/3/3 80/3/3 83/3/3
f 85/3/3 82/3/3 81/3/3
f 86/3/3 82/3/3 85/3/3
f 87/5/3 85/5/3 84/5/3
f 88/5/3 85/5/3 87/5/3
f 91/3/3 90/3/3 89/3/3
f 92/3/3 90/3/3 91/3/3
f 93/2/4 94/2/4 95/2/4
f 95/2/4 94/2/4 96/2/4
f 97/1/4 98/1/4 100/1/4
f 100/1/4 98/1/4 101/1/4
f 99/3/4 100/3/4 103/3/4
f 103/3/4 100/3/4 104/3/4
f 101/3/4 102/3/4 105/3/4
f 105/3/4 102/3/4 106/3/4
f 104/5/4 105/5/4 107/5/4
f 107/5/4 105/5/4 108/5/4
f 109/3/4 110/3/4 111/3/4
f 111/3/4 110/3/4 112/3/4
f 113/5/4 114/5/4 115/5/4
f 115/5/4 114/5/4 116/5/4
f 119/3/5 118/3/5 117/3/5
f 120/3/5 118/3/5 119/3/5
f 123/5/5 122/5/5 121/5/5
f 124/5/5 122/5/5 123/5/5
f 125/4/5 124/4/5 123/4/5
f 126/4/5 124/4/5 125/4/5
f 127/5/5 126/5/5 125/5/5
f 128/5/5 126/5/5 127/5/5
f 131/3/5 128/3/5 127/3/5
f 131/3/5 129/3/5 128/3/5
f 132/3/5 129/3/5 131/3/5
f 134/1/5 131/1/5 130/1/5
f 135/1/5 131/1/5 134/1/5
f 136/5/5 133/5/5 132/5/5
f 137/5/5 133/5/5 136/5/5
f 138/3/5 136/3/5 135/3/5
f 139/3/5 136/3/5 138/3/5
f 140/3/5 136/3/5 139/3/5
f 141/5/5 139/5/5 138/5/5
f 142/5/5 139/5/5 141/5/5
f 143/4/5 142/4/5 141/4/5
f 144/4/5 142/4/5 143/4/5
f 145/5/5 144/5/5 143/5/5
f 146/5/5 144/5/5 145/5/5
f 149/3/5 148/3/5 147/3/5
f 150/3/5 148/3/5 149/3/5
f 151/2/6 152/2/6 153/2/6
f 153/2/6 152/2/6 154/2/6
f 155/5/6 156/5/6 157/5/6
f 157/5/6 156/5/6 158/5/6
f 157/4/6 158/4/6 159/4/6
f 159/4/6 158/4/6 160/4/6
f 159/5/6 160/5/6 161/5/6
f 161/5/6 160/5/6 162/5/6
f 161/3/6 162/3/6 165/3/6
f 162/3/6 163/3/6 165/3/6
f 165/3/6 163/3/6 166/3/6
f 164/1/6 165/1/6 168/1/6
f 168/1/6 165/1/6 169/1/6
f 166/5/6 167/5/6 170/5/6
f 170/5/6 167/5/6 171/5/6
f 169/3/6 170/3/6 172/3/6
f 172/3/6 170/3/6 173/3/6
f 173/3/6 170/3/6 174/3/6
f 172/5/6 173/5/6 175/5/6
f 175/5/6 173/5/6 176/5/6
f 175/4/6 176/4/6 177/4/6
f 177/4/6 176/4/6 178/4/6
f 177/5/6 178/5/6 179/5/6
f 179/5/6 178/5/6 180/5/6
f 181/3/6 182/3/6 183/3/6
f 183/3/6 182/3/6 184/3/6
