# MagicaVoxel @ Ephtracy

# group
o 

# material
mtllib AirplaneBodyBroken1.mtl
usemtl palette

# normals
vn -1 0 0
vn 1 0 0
vn 0 0 1
vn 0 0 -1
vn 0 -1 0
vn 0 1 0

# texcoords
vt 0.841797 0.5
vt 0.994141 0.5

# verts
v -0.3 -0.3 0.6
v -0.3 -0.3 -0.6
v -0.3 -0.2 0.6
v -0.3 -0.2 -0.6
v -0.3 0.1 0.2
v -0.3 0.1 0.1
v -0.3 0.3 0.6
v -0.3 0.3 0.2
v -0.3 0.3 0.1
v -0.3 0.3 -0.6
v -0.3 0.4 0.6
v -0.3 0.4 -0.6
v -0.2 -0.1 0.2
v -0.2 -0.1 0.1
v -0.2 0.1 0.2
v -0.2 0.1 0.1
v -0.1 -0.2 0.2
v -0.1 -0.2 0.1
v -0.1 -0.1 0.2
v -0.1 -0.1 0.1
v -0.1 0.3 -0.5
v -0.1 0.3 -0.6
v -0.1 0.4 -0.5
v -0.1 0.4 -0.6
v 0 -0.3 -0.5
v 0 -0.3 -0.6
v 0 -0.2 -0.5
v 0 -0.2 -0.6
v 0 -0.1 0.2
v 0 -0.1 0.1
v 0 0 0.2
v 0 0 0.1
v 0.1 0.1 0.2
v 0.1 0.1 0.1
v 0.1 0.3 0.2
v 0.1 0.3 0.1
v 0.1 0.3 -0.4
v 0.1 0.3 -0.6
v 0.1 0.4 -0.4
v 0.1 0.4 -0.6
v -0.2 0.1 0.2
v -0.2 0.1 0.1
v -0.2 0.3 0.2
v -0.2 0.3 0.1
v -0.2 0.3 -0.5
v -0.2 0.3 -0.6
v -0.2 0.4 -0.5
v -0.2 0.4 -0.6
v -0.1 -0.3 -0.5
v -0.1 -0.3 -0.6
v -0.1 -0.2 -0.5
v -0.1 -0.2 -0.6
v -0.1 -0.1 0.2
v -0.1 -0.1 0.1
v -0.1 0.1 0.2
v -0.1 0.1 0.1
v 0 -0.3 0.6
v 0 -0.3 0.5
v 0 -0.2 0.6
v 0 -0.2 0.5
v 0 -0.2 0.2
v 0 -0.2 0.1
v 0 -0.1 0.2
v 0 -0.1 0.1
v 0 0.3 0.6
v 0 0.3 0.5
v 0 0.3 -0.4
v 0 0.3 -0.6
v 0 0.4 0.6
v 0 0.4 0.5
v 0 0.4 -0.4
v 0 0.4 -0.6
v 0.1 -0.3 0.5
v 0.1 -0.3 0.3
v 0.1 -0.3 -0.3
v 0.1 -0.3 -0.6
v 0.1 -0.2 0.5
v 0.1 -0.2 0.3
v 0.1 -0.2 -0.3
v 0.1 -0.2 -0.6
v 0.1 -0.1 0.2
v 0.1 -0.1 0.1
v 0.1 0 0.2
v 0.1 0 0.1
v 0.1 0.3 0.5
v 0.1 0.3 0.3
v 0.1 0.4 0.5
v 0.1 0.4 0.3
v 0.2 -0.3 0.3
v 0.2 -0.3 -0.3
v 0.2 -0.2 0.3
v 0.2 -0.2 -0.3
v 0.2 0.1 0.2
v 0.2 0.1 0.1
v 0.2 0.3 0.3
v 0.2 0.3 0.2
v 0.2 0.3 0.1
v 0.2 0.4 0.3
v 0.2 0.4 0.1
v 0.3 0.3 0.1
v 0.3 0.3 -0.6
v 0.3 0.4 0.1
v 0.3 0.4 -0.6
v -0.3 -0.3 0.6
v -0.3 -0.2 0.6
v -0.3 0.3 0.6
v -0.3 0.4 0.6
v 0 -0.3 0.6
v 0 -0.2 0.6
v 0 0.3 0.6
v 0 0.4 0.6
v 0 -0.3 0.5
v 0 -0.2 0.5
v 0 0.3 0.5
v 0 0.4 0.5
v 0.1 -0.3 0.5
v 0.1 -0.2 0.5
v 0.1 0.3 0.5
v 0.1 0.4 0.5
v 0.1 -0.3 0.3
v 0.1 -0.2 0.3
v 0.1 0.3 0.3
v 0.1 0.4 0.3
v 0.2 -0.3 0.3
v 0.2 -0.2 0.3
v 0.2 0.3 0.3
v 0.2 0.4 0.3
v -0.3 0.1 0.2
v -0.3 0.3 0.2
v -0.2 -0.1 0.2
v -0.2 0.1 0.2
v -0.2 0.3 0.2
v -0.1 -0.2 0.2
v -0.1 -0.1 0.2
v -0.1 0.1 0.2
v 0 -0.2 0.2
v 0 -0.1 0.2
v 0 0 0.2
v 0.1 -0.1 0.2
v 0.1 0 0.2
v 0.1 0.1 0.2
v 0.1 0.3 0.2
v 0.2 0.1 0.2
v 0.2 0.3 0.2
v 0.2 0.3 0.1
v 0.2 0.4 0.1
v 0.3 0.3 0.1
v 0.3 0.4 0.1
v -0.3 0.1 0.1
v -0.3 0.3 0.1
v -0.2 -0.1 0.1
v -0.2 0.1 0.1
v -0.2 0.3 0.1
v -0.1 -0.2 0.1
v -0.1 -0.1 0.1
v -0.1 0.1 0.1
v 0 -0.2 0.1
v 0 -0.1 0.1
v 0 0 0.1
v 0.1 -0.1 0.1
v 0.1 0 0.1
v 0.1 0.1 0.1
v 0.1 0.3 0.1
v 0.2 0.1 0.1
v 0.2 0.3 0.1
v 0.1 -0.3 -0.3
v 0.1 -0.2 -0.3
v 0.2 -0.3 -0.3
v 0.2 -0.2 -0.3
v 0 0.3 -0.4
v 0 0.4 -0.4
v 0.1 0.3 -0.4
v 0.1 0.4 -0.4
v -0.2 0.3 -0.5
v -0.2 0.4 -0.5
v -0.1 -0.3 -0.5
v -0.1 -0.2 -0.5
v -0.1 0.3 -0.5
v -0.1 0.4 -0.5
v 0 -0.3 -0.5
v 0 -0.2 -0.5
v -0.3 -0.3 -0.6
v -0.3 -0.2 -0.6
v -0.3 0.3 -0.6
v -0.3 0.4 -0.6
v -0.2 0.3 -0.6
v -0.2 0.4 -0.6
v -0.1 -0.3 -0.6
v -0.1 -0.2 -0.6
v -0.1 0.3 -0.6
v -0.1 0.4 -0.6
v 0 -0.3 -0.6
v 0 -0.2 -0.6
v 0 0.3 -0.6
v 0 0.4 -0.6
v 0.1 -0.3 -0.6
v 0.1 -0.2 -0.6
v 0.1 0.3 -0.6
v 0.1 0.4 -0.6
v 0.3 0.3 -0.6
v 0.3 0.4 -0.6
v -0.3 -0.3 0.6
v 0 -0.3 0.6
v 0 -0.3 0.5
v 0.1 -0.3 0.5
v 0.1 -0.3 0.3
v 0.2 -0.3 0.3
v 0.1 -0.3 -0.3
v 0.2 -0.3 -0.3
v -0.1 -0.3 -0.5
v 0 -0.3 -0.5
v -0.3 -0.3 -0.6
v -0.1 -0.3 -0.6
v 0 -0.3 -0.6
v 0.1 -0.3 -0.6
v -0.2 -0.1 0.2
v -0.1 -0.1 0.2
v 0 -0.1 0.2
v 0.1 -0.1 0.2
v -0.2 -0.1 0.1
v -0.1 -0.1 0.1
v 0 -0.1 0.1
v 0.1 -0.1 0.1
v -0.3 0.1 0.2
v -0.2 0.1 0.2
v 0.1 0.1 0.2
v 0.2 0.1 0.2
v -0.3 0.1 0.1
v -0.2 0.1 0.1
v 0.1 0.1 0.1
v 0.2 0.1 0.1
v -0.3 0.3 0.6
v 0 0.3 0.6
v 0 0.3 0.5
v 0.1 0.3 0.5
v 0.1 0.3 0.3
v 0.2 0.3 0.3
v -0.3 0.3 0.2
v -0.2 0.3 0.2
v 0.1 0.3 0.2
v 0.2 0.3 0.2
v -0.3 0.3 0.1
v -0.2 0.3 0.1
v 0.1 0.3 0.1
v 0.2 0.3 0.1
v 0.3 0.3 0.1
v 0 0.3 -0.4
v 0.1 0.3 -0.4
v -0.2 0.3 -0.5
v -0.1 0.3 -0.5
v -0.3 0.3 -0.6
v -0.2 0.3 -0.6
v -0.1 0.3 -0.6
v 0 0.3 -0.6
v 0.1 0.3 -0.6
v 0.3 0.3 -0.6
v -0.3 -0.2 0.6
v 0 -0.2 0.6
v 0 -0.2 0.5
v 0.1 -0.2 0.5
v 0.1 -0.2 0.3
v 0.2 -0.2 0.3
v -0.1 -0.2 0.2
v 0 -0.2 0.2
v -0.1 -0.2 0.1
v 0 -0.2 0.1
v 0.1 -0.2 -0.3
v 0.2 -0.2 -0.3
v -0.1 -0.2 -0.5
v 0 -0.2 -0.5
v -0.3 -0.2 -0.6
v -0.1 -0.2 -0.6
v 0 -0.2 -0.6
v 0.1 -0.2 -0.6
v -0.1 -0.1 0.2
v 0 -0.1 0.2
v -0.1 -0.1 0.1
v 0 -0.1 0.1
v 0 0 0.2
v 0.1 0 0.2
v 0 0 0.1
v 0.1 0 0.1
v -0.2 0.1 0.2
v -0.1 0.1 0.2
v -0.2 0.1 0.1
v -0.1 0.1 0.1
v -0.3 0.4 0.6
v 0 0.4 0.6
v 0 0.4 0.5
v 0.1 0.4 0.5
v 0.1 0.4 0.3
v 0.2 0.4 0.3
v 0.2 0.4 0.1
v 0.3 0.4 0.1
v 0 0.4 -0.4
v 0.1 0.4 -0.4
v -0.2 0.4 -0.5
v -0.1 0.4 -0.5
v -0.3 0.4 -0.6
v -0.2 0.4 -0.6
v -0.1 0.4 -0.6
v 0 0.4 -0.6
v 0.1 0.4 -0.6
v 0.3 0.4 -0.6

# faces
f 3/1/1 2/1/1 1/1/1
f 4/1/1 2/1/1 3/1/1
f 8/2/1 6/2/1 5/2/1
f 9/2/1 6/2/1 8/2/1
f 11/1/1 8/1/1 7/1/1
f 11/1/1 10/1/1 9/1/1
f 11/1/1 9/1/1 8/1/1
f 12/1/1 10/1/1 11/1/1
f 15/2/1 14/2/1 13/2/1
f 16/2/1 14/2/1 15/2/1
f 19/2/1 18/2/1 17/2/1
f 20/2/1 18/2/1 19/2/1
f 23/1/1 22/1/1 21/1/1
f 24/1/1 22/1/1 23/1/1
f 27/1/1 26/1/1 25/1/1
f 28/1/1 26/1/1 27/1/1
f 31/2/1 30/2/1 29/2/1
f 32/2/1 30/2/1 31/2/1
f 35/2/1 34/2/1 33/2/1
f 36/2/1 34/2/1 35/2/1
f 39/1/1 38/1/1 37/1/1
f 40/1/1 38/1/1 39/1/1
f 41/2/2 42/2/2 43/2/2
f 43/2/2 42/2/2 44/2/2
f 45/1/2 46/1/2 47/1/2
f 47/1/2 46/1/2 48/1/2
f 49/1/2 50/1/2 51/1/2
f 51/1/2 50/1/2 52/1/2
f 53/2/2 54/2/2 55/2/2
f 55/2/2 54/2/2 56/2/2
f 57/1/2 58/1/2 59/1/2
f 59/1/2 58/1/2 60/1/2
f 61/2/2 62/2/2 63/2/2
f 63/2/2 62/2/2 64/2/2
f 65/1/2 66/1/2 69/1/2
f 69/1/2 66/1/2 70/1/2
f 67/1/2 68/1/2 71/1/2
f 71/1/2 68/1/2 72/1/2
f 73/1/2 74/1/2 77/1/2
f 77/1/2 74/1/2 78/1/2
f 75/1/2 76/1/2 79/1/2
f 79/1/2 76/1/2 80/1/2
f 81/2/2 82/2/2 83/2/2
f 83/2/2 82/2/2 84/2/2
f 85/1/2 86/1/2 87/1/2
f 87/1/2 86/1/2 88/1/2
f 89/1/2 90/1/2 91/1/2
f 91/1/2 90/1/2 92/1/2
f 93/2/2 94/2/2 96/2/2
f 96/2/2 94/2/2 97/2/2
f 95/1/2 96/1/2 98/1/2
f 96/1/2 97/1/2 98/1/2
f 98/1/2 97/1/2 99/1/2
f 100/1/2 101/1/2 102/1/2
f 102/1/2 101/1/2 103/1/2
f 108/1/3 105/1/3 104/1/3
f 109/1/3 105/1/3 108/1/3
f 110/1/3 107/1/3 106/1/3
f 111/1/3 107/1/3 110/1/3
f 116/1/3 113/1/3 112/1/3
f 117/1/3 113/1/3 116/1/3
f 118/1/3 115/1/3 114/1/3
f 119/1/3 115/1/3 118/1/3
f 124/1/3 121/1/3 120/1/3
f 125/1/3 121/1/3 124/1/3
f 126/1/3 123/1/3 122/1/3
f 127/1/3 123/1/3 126/1/3
f 131/2/3 129/2/3 128/2/3
f 132/2/3 129/2/3 131/2/3
f 134/2/3 131/2/3 130/2/3
f 135/2/3 131/2/3 134/2/3
f 136/2/3 134/2/3 133/2/3
f 137/2/3 134/2/3 136/2/3
f 139/2/3 138/2/3 137/2/3
f 140/2/3 138/2/3 139/2/3
f 143/2/3 142/2/3 141/2/3
f 144/2/3 142/2/3 143/2/3
f 147/1/3 146/1/3 145/1/3
f 148/1/3 146/1/3 147/1/3
f 149/2/4 150/2/4 152/2/4
f 152/2/4 150/2/4 153/2/4
f 151/2/4 152/2/4 155/2/4
f 155/2/4 152/2/4 156/2/4
f 154/2/4 155/2/4 157/2/4
f 157/2/4 155/2/4 158/2/4
f 158/2/4 159/2/4 160/2/4
f 160/2/4 159/2/4 161/2/4
f 162/2/4 163/2/4 164/2/4
f 164/2/4 163/2/4 165/2/4
f 166/1/4 167/1/4 168/1/4
f 168/1/4 167/1/4 169/1/4
f 170/1/4 171/1/4 172/1/4
f 172/1/4 171/1/4 173/1/4
f 174/1/4 175/1/4 178/1/4
f 178/1/4 175/1/4 179/1/4
f 176/1/4 177/1/4 180/1/4
f 180/1/4 177/1/4 181/1/4
f 184/1/4 185/1/4 186/1/4
f 186/1/4 185/1/4 187/1/4
f 182/1/4 183/1/4 188/1/4
f 188/1/4 183/1/4 189/1/4
f 190/1/4 191/1/4 194/1/4
f 194/1/4 191/1/4 195/1/4
f 192/1/4 193/1/4 196/1/4
f 196/1/4 193/1/4 197/1/4
f 198/1/4 199/1/4 200/1/4
f 200/1/4 199/1/4 201/1/4
f 204/1/5 203/1/5 202/1/5
f 206/1/5 205/1/5 204/1/5
f 208/1/5 206/1/5 204/1/5
f 208/1/5 207/1/5 206/1/5
f 209/1/5 207/1/5 208/1/5
f 210/1/5 204/1/5 202/1/5
f 210/1/5 208/1/5 204/1/5
f 211/1/5 208/1/5 210/1/5
f 212/1/5 210/1/5 202/1/5
f 213/1/5 210/1/5 212/1/5
f 214/1/5 208/1/5 211/1/5
f 215/1/5 208/1/5 214/1/5
f 220/2/5 217/2/5 216/2/5
f 221/2/5 217/2/5 220/2/5
f 222/2/5 219/2/5 218/2/5
f 223/2/5 219/2/5 222/2/5
f 228/2/5 225/2/5 224/2/5
f 229/2/5 225/2/5 228/2/5
f 230/2/5 227/2/5 226/2/5
f 231/2/5 227/2/5 230/2/5
f 234/1/5 233/1/5 232/1/5
f 236/1/5 235/1/5 234/1/5
f 238/1/5 234/1/5 232/1/5
f 238/1/5 237/1/5 236/1/5
f 238/1/5 236/1/5 234/1/5
f 239/1/5 237/1/5 238/1/5
f 240/1/5 237/1/5 239/1/5
f 241/1/5 237/1/5 240/1/5
f 243/1/5 240/1/5 239/1/5
f 244/1/5 240/1/5 243/1/5
f 247/1/5 245/1/5 244/1/5
f 247/1/5 246/1/5 245/1/5
f 247/1/5 244/1/5 243/1/5
f 247/1/5 243/1/5 242/1/5
f 248/1/5 246/1/5 247/1/5
f 249/1/5 247/1/5 242/1/5
f 250/1/5 247/1/5 249/1/5
f 251/1/5 249/1/5 242/1/5
f 252/1/5 249/1/5 251/1/5
f 253/1/5 247/1/5 250/1/5
f 254/1/5 247/1/5 253/1/5
f 255/1/5 246/1/5 248/1/5
f 256/1/5 246/1/5 255/1/5
f 257/1/6 258/1/6 259/1/6
f 259/1/6 260/1/6 261/1/6
f 257/1/6 259/1/6 263/1/6
f 261/1/6 262/1/6 263/1/6
f 259/1/6 261/1/6 263/1/6
f 263/1/6 262/1/6 264/1/6
f 257/1/6 263/1/6 265/1/6
f 264/1/6 262/1/6 266/1/6
f 266/1/6 262/1/6 267/1/6
f 265/1/6 266/1/6 267/1/6
f 267/1/6 262/1/6 268/1/6
f 257/1/6 265/1/6 269/1/6
f 265/1/6 267/1/6 269/1/6
f 269/1/6 267/1/6 270/1/6
f 257/1/6 269/1/6 271/1/6
f 271/1/6 269/1/6 272/1/6
f 270/1/6 267/1/6 273/1/6
f 273/1/6 267/1/6 274/1/6
f 275/2/6 276/2/6 277/2/6
f 277/2/6 276/2/6 278/2/6
f 279/2/6 280/2/6 281/2/6
f 281/2/6 280/2/6 282/2/6
f 283/2/6 284/2/6 285/2/6
f 285/2/6 284/2/6 286/2/6
f 287/1/6 288/1/6 289/1/6
f 289/1/6 290/1/6 291/1/6
f 291/1/6 292/1/6 293/1/6
f 287/1/6 289/1/6 295/1/6
f 293/1/6 294/1/6 295/1/6
f 291/1/6 293/1/6 295/1/6
f 289/1/6 291/1/6 295/1/6
f 295/1/6 294/1/6 296/1/6
f 287/1/6 295/1/6 297/1/6
f 297/1/6 295/1/6 298/1/6
f 287/1/6 297/1/6 299/1/6
f 299/1/6 297/1/6 300/1/6
f 298/1/6 295/1/6 301/1/6
f 301/1/6 295/1/6 302/1/6
f 296/1/6 294/1/6 303/1/6
f 303/1/6 294/1/6 304/1/6
