# MagicaVoxel @ Ephtracy

# group
o 

# material
mtllib AirplaneBodyBroken3.mtl
usemtl palette

# normals
vn -1 0 0
vn 1 0 0
vn 0 0 1
vn 0 0 -1
vn 0 -1 0
vn 0 1 0

# texcoords
vt 0.958984 0.5
vt 0.994141 0.5

# verts
v 0.4 0 -0.1
v 0.4 0 -0.2
v 0.4 0 -0.8
v 0.4 0 -0.9
v 0.4 0.3 -0.1
v 0.4 0.3 -0.2
v 0.4 0.3 -0.8
v 0.4 0.3 -0.9
v 0.5 0.1 0
v 0.5 0.1 -0.1
v 0.5 0.1 -0.2
v 0.5 0.1 -0.8
v 0.5 0.1 -0.9
v 0.5 0.1 -1
v 0.5 0.2 0
v 0.5 0.2 -0.1
v 0.5 0.2 -0.2
v 0.5 0.2 -0.8
v 0.5 0.2 -0.9
v 0.5 0.2 -1
v 0.6 0.1 0
v 0.6 0.1 -0.1
v 0.6 0.1 -0.2
v 0.6 0.1 -0.8
v 0.6 0.1 -0.9
v 0.6 0.1 -1
v 0.6 0.2 0
v 0.6 0.2 -0.1
v 0.6 0.2 -0.2
v 0.6 0.2 -0.8
v 0.6 0.2 -0.9
v 0.6 0.2 -1
v 0.7 0 -0.1
v 0.7 0 -0.2
v 0.7 0 -0.8
v 0.7 0 -0.9
v 0.7 0.3 -0.1
v 0.7 0.3 -0.2
v 0.7 0.3 -0.8
v 0.7 0.3 -0.9
v 0.5 0.1 0
v 0.5 0.2 0
v 0.6 0.1 0
v 0.6 0.2 0
v 0.4 0 -0.1
v 0.4 0.3 -0.1
v 0.5 0.1 -0.1
v 0.5 0.2 -0.1
v 0.6 0.1 -0.1
v 0.6 0.2 -0.1
v 0.7 0 -0.1
v 0.7 0.3 -0.1
v 0.4 0 -0.8
v 0.4 0.3 -0.8
v 0.5 0.1 -0.8
v 0.5 0.2 -0.8
v 0.6 0.1 -0.8
v 0.6 0.2 -0.8
v 0.7 0 -0.8
v 0.7 0.3 -0.8
v 0.4 0 -0.2
v 0.4 0.3 -0.2
v 0.5 0.1 -0.2
v 0.5 0.2 -0.2
v 0.6 0.1 -0.2
v 0.6 0.2 -0.2
v 0.7 0 -0.2
v 0.7 0.3 -0.2
v 0.4 0 -0.9
v 0.4 0.3 -0.9
v 0.5 0.1 -0.9
v 0.5 0.2 -0.9
v 0.6 0.1 -0.9
v 0.6 0.2 -0.9
v 0.7 0 -0.9
v 0.7 0.3 -0.9
v 0.5 0.1 -1
v 0.5 0.2 -1
v 0.6 0.1 -1
v 0.6 0.2 -1
v 0.4 0 -0.1
v 0.7 0 -0.1
v 0.4 0 -0.2
v 0.7 0 -0.2
v 0.4 0 -0.8
v 0.7 0 -0.8
v 0.4 0 -0.9
v 0.7 0 -0.9
v 0.5 0.1 0
v 0.6 0.1 0
v 0.5 0.1 -0.1
v 0.6 0.1 -0.1
v 0.5 0.1 -0.2
v 0.6 0.1 -0.2
v 0.5 0.1 -0.8
v 0.6 0.1 -0.8
v 0.5 0.1 -0.9
v 0.6 0.1 -0.9
v 0.5 0.1 -1
v 0.6 0.1 -1
v 0.5 0.2 0
v 0.6 0.2 0
v 0.5 0.2 -0.1
v 0.6 0.2 -0.1
v 0.5 0.2 -0.2
v 0.6 0.2 -0.2
v 0.5 0.2 -0.8
v 0.6 0.2 -0.8
v 0.5 0.2 -0.9
v 0.6 0.2 -0.9
v 0.5 0.2 -1
v 0.6 0.2 -1
v 0.4 0.3 -0.1
v 0.7 0.3 -0.1
v 0.4 0.3 -0.2
v 0.7 0.3 -0.2
v 0.4 0.3 -0.8
v 0.7 0.3 -0.8
v 0.4 0.3 -0.9
v 0.7 0.3 -0.9

# faces
f 5/2/1 2/2/1 1/2/1
f 6/2/1 2/2/1 5/2/1
f 7/2/1 4/2/1 3/2/1
f 8/2/1 4/2/1 7/2/1
f 15/1/1 10/1/1 9/1/1
f 16/1/1 10/1/1 15/1/1
f 17/2/1 12/2/1 11/2/1
f 18/2/1 12/2/1 17/2/1
f 19/1/1 14/1/1 13/1/1
f 20/1/1 14/1/1 19/1/1
f 21/1/2 22/1/2 27/1/2
f 27/1/2 22/1/2 28/1/2
f 23/2/2 24/2/2 29/2/2
f 29/2/2 24/2/2 30/2/2
f 25/1/2 26/1/2 31/1/2
f 31/1/2 26/1/2 32/1/2
f 33/2/2 34/2/2 37/2/2
f 37/2/2 34/2/2 38/2/2
f 35/2/2 36/2/2 39/2/2
f 39/2/2 36/2/2 40/2/2
f 43/1/3 42/1/3 41/1/3
f 44/1/3 42/1/3 43/1/3
f 47/2/3 46/2/3 45/2/3
f 48/2/3 46/2/3 47/2/3
f 49/2/3 47/2/3 45/2/3
f 50/2/3 46/2/3 48/2/3
f 51/2/3 49/2/3 45/2/3
f 51/2/3 50/2/3 49/2/3
f 52/2/3 46/2/3 50/2/3
f 52/2/3 50/2/3 51/2/3
f 55/2/3 54/2/3 53/2/3
f 56/2/3 54/2/3 55/2/3
f 57/2/3 55/2/3 53/2/3
f 58/2/3 54/2/3 56/2/3
f 59/2/3 57/2/3 53/2/3
f 59/2/3 58/2/3 57/2/3
f 60/2/3 54/2/3 58/2/3
f 60/2/3 58/2/3 59/2/3
f 61/2/4 62/2/4 63/2/4
f 63/2/4 62/2/4 64/2/4
f 61/2/4 63/2/4 65/2/4
f 64/2/4 62/2/4 66/2/4
f 61/2/4 65/2/4 67/2/4
f 65/2/4 66/2/4 67/2/4
f 66/2/4 62/2/4 68/2/4
f 67/2/4 66/2/4 68/2/4
f 69/2/4 70/2/4 71/2/4
f 71/2/4 70/2/4 72/2/4
f 69/2/4 71/2/4 73/2/4
f 72/2/4 70/2/4 74/2/4
f 69/2/4 73/2/4 75/2/4
f 73/2/4 74/2/4 75/2/4
f 74/2/4 70/2/4 76/2/4
f 75/2/4 74/2/4 76/2/4
f 77/1/4 78/1/4 79/1/4
f 79/1/4 78/1/4 80/1/4
f 83/2/5 82/2/5 81/2/5
f 84/2/5 82/2/5 83/2/5
f 87/2/5 86/2/5 85/2/5
f 88/2/5 86/2/5 87/2/5
f 91/1/5 90/1/5 89/1/5
f 92/1/5 90/1/5 91/1/5
f 95/2/5 94/2/5 93/2/5
f 96/2/5 94/2/5 95/2/5
f 99/1/5 98/1/5 97/1/5
f 100/1/5 98/1/5 99/1/5
f 101/1/6 102/1/6 103/1/6
f 103/1/6 102/1/6 104/1/6
f 105/2/6 106/2/6 107/2/6
f 107/2/6 106/2/6 108/2/6
f 109/1/6 110/1/6 111/1/6
f 111/1/6 110/1/6 112/1/6
f 113/2/6 114/2/6 115/2/6
f 115/2/6 114/2/6 116/2/6
f 117/2/6 118/2/6 119/2/6
f 119/2/6 118/2/6 120/2/6
