# MagicaVoxel @ Ephtracy

# group
o 

# material
mtllib lava_background-13.mtl
usemtl palette

# normals
vn -1 0 0
vn 1 0 0
vn 0 0 1
vn 0 0 -1
vn 0 -1 0
vn 0 1 0

# texcoords
vt 0.0449219 0.5
vt 0.0683594 0.5
vt 0.0917969 0.5

# verts
v -25.6 0 -32.4
v -25.6 0 -48.4
v -25.6 0.5 -32.4
v -25.6 0.5 -48.4
v 0 0 -32.4
v 0 0 -48.4
v 0 0.5 -32.4
v 0 0.5 -48.4
v -25.6 0 -32.4
v -25.6 0.5 -32.4
v -24.7 0.4 -32.4
v -24.7 0.5 -32.4
v -23.7 0.4 -32.4
v -23.7 0.5 -32.4
v -14.7 0.4 -32.4
v -14.7 0.5 -32.4
v -12.7 0.4 -32.4
v -12.7 0.5 -32.4
v 0 0 -32.4
v 0 0.5 -32.4
v -25.6 0 -48.4
v -25.6 0.5 -48.4
v 0 0 -48.4
v 0 0.5 -48.4
v -25.6 0 -32.4
v 0 0 -32.4
v -25.6 0 -48.4
v 0 0 -48.4
v -25.6 0.5 -32.4
v -24.7 0.5 -32.4
v -23.7 0.5 -32.4
v -14.7 0.5 -32.4
v -12.7 0.5 -32.4
v 0 0.5 -32.4
v -14.8 0.5 -32.5
v -14.7 0.5 -32.5
v -14.9 0.5 -32.7
v -14.8 0.5 -32.7
v -15 0.5 -33
v -14.9 0.5 -33
v -23.7 0.5 -33.1
v -23.6 0.5 -33.1
v -15.1 0.5 -33.1
v -15 0.5 -33.1
v -15.2 0.5 -33.4
v -15.1 0.5 -33.4
v -23.6 0.5 -33.5
v -23.5 0.5 -33.5
v -15.3 0.5 -33.5
v -15.2 0.5 -33.5
v -12.8 0.5 -33.5
v -12.7 0.5 -33.5
v -23.5 0.5 -33.6
v -23.4 0.5 -33.6
v -24.7 0.5 -33.8
v -24.6 0.5 -33.8
v -23.4 0.5 -33.8
v -23.3 0.5 -33.8
v -15.4 0.5 -33.8
v -15.3 0.5 -33.8
v -23.3 0.5 -33.9
v -23.2 0.5 -33.9
v -15.5 0.5 -33.9
v -15.4 0.5 -33.9
v -23.2 0.5 -34
v -23.1 0.5 -34
v -23.1 0.5 -34.1
v -23 0.5 -34.1
v -15.6 0.5 -34.1
v -15.5 0.5 -34.1
v -23 0.5 -34.3
v -22.9 0.5 -34.3
v -24.6 0.5 -34.4
v -24.5 0.5 -34.4
v -15.7 0.5 -34.4
v -15.6 0.5 -34.4
v -22.9 0.5 -34.5
v -22.8 0.5 -34.5
v -12.9 0.5 -34.5
v -12.8 0.5 -34.5
v -15.8 0.5 -34.6
v -15.7 0.5 -34.6
v -24.5 0.5 -34.7
v -24.4 0.5 -34.7
v -22.8 0.5 -34.7
v -22.7 0.5 -34.7
v -15.9 0.5 -34.7
v -15.8 0.5 -34.7
v -13 0.5 -34.7
v -12.9 0.5 -34.7
v -22.7 0.5 -34.8
v -22.6 0.5 -34.8
v -24.4 0.5 -34.9
v -24.3 0.5 -34.9
v -13.1 0.5 -34.9
v -13 0.5 -34.9
v -16 0.5 -35
v -15.9 0.5 -35
v -24.3 0.5 -35.1
v -24.2 0.5 -35.1
v -22.6 0.5 -35.1
v -22.4 0.5 -35.1
v -16.1 0.5 -35.2
v -16 0.5 -35.2
v -22.4 0.5 -35.3
v -22.3 0.5 -35.3
v -16.2 0.5 -35.3
v -16.1 0.5 -35.3
v -13.2 0.5 -35.3
v -13.1 0.5 -35.3
v -24.2 0.5 -35.4
v -24.1 0.5 -35.4
v -16.3 0.5 -35.4
v -16.2 0.5 -35.4
v -22.3 0.5 -35.5
v -22.2 0.5 -35.5
v -13.3 0.5 -35.5
v -13.2 0.5 -35.5
v -24.1 0.5 -35.6
v -24 0.5 -35.6
v -16.4 0.5 -35.6
v -16.3 0.5 -35.6
v -16.5 0.5 -35.7
v -16.4 0.5 -35.7
v -13.4 0.5 -35.7
v -13.3 0.5 -35.7
v -24 0.5 -35.8
v -23.9 0.5 -35.8
v -22.2 0.5 -35.8
v -22.1 0.5 -35.8
v -22.1 0.5 -35.9
v -22 0.5 -35.9
v -16.6 0.5 -35.9
v -16.5 0.5 -35.9
v -13.5 0.5 -35.9
v -13.4 0.5 -35.9
v -23.9 0.5 -36
v -23.8 0.5 -36
v -22 0.5 -36
v -21.9 0.5 -36
v -16.7 0.5 -36
v -16.6 0.5 -36
v -13.6 0.5 -36
v -13.5 0.5 -36
v -21.9 0.5 -36.1
v -21.8 0.5 -36.1
v -23.8 0.5 -36.2
v -23.7 0.5 -36.2
v -13.7 0.5 -36.2
v -13.6 0.5 -36.2
v -23.7 0.5 -36.3
v -23.6 0.5 -36.3
v -21.8 0.5 -36.3
v -21.7 0.5 -36.3
v -16.8 0.5 -36.3
v -16.7 0.5 -36.3
v -13.8 0.5 -36.3
v -13.7 0.5 -36.3
v -21.7 0.5 -36.4
v -21.6 0.5 -36.4
v -17 0.5 -36.4
v -16.8 0.5 -36.4
v -23.6 0.5 -36.5
v -23.5 0.5 -36.5
v -17.2 0.5 -36.5
v -17 0.5 -36.5
v -13.9 0.5 -36.5
v -13.8 0.5 -36.5
v -23.5 0.5 -36.6
v -23.4 0.5 -36.6
v -21.6 0.5 -36.6
v -21.4 0.5 -36.6
v -17.3 0.5 -36.6
v -17.2 0.5 -36.6
v -17.5 0.5 -36.7
v -17.3 0.5 -36.7
v -14 0.5 -36.7
v -13.9 0.5 -36.7
v -23.4 0.5 -36.8
v -23.3 0.5 -36.8
v -21.4 0.5 -36.8
v -21.2 0.5 -36.8
v -17.7 0.5 -36.8
v -17.5 0.5 -36.8
v -17.9 0.5 -36.9
v -17.7 0.5 -36.9
v -14.1 0.5 -36.9
v -14 0.5 -36.9
v -23.3 0.5 -37
v -23.2 0.5 -37
v -21.2 0.5 -37
v -21 0.5 -37
v -18.1 0.5 -37
v -17.9 0.5 -37
v -21 0.5 -37.1
v -20.8 0.5 -37.1
v -18.4 0.5 -37.1
v -18.1 0.5 -37.1
v -23.2 0.5 -37.2
v -23.1 0.5 -37.2
v -20.8 0.5 -37.2
v -20.7 0.5 -37.2
v -18.6 0.5 -37.2
v -18.4 0.5 -37.2
v -14.2 0.5 -37.2
v -14.1 0.5 -37.2
v -20.7 0.5 -37.3
v -20.5 0.5 -37.3
v -18.9 0.5 -37.3
v -18.6 0.5 -37.3
v -23.1 0.5 -37.4
v -23 0.5 -37.4
v -20.5 0.5 -37.4
v -18.9 0.5 -37.4
v -14.3 0.5 -37.4
v -14.2 0.5 -37.4
v -23 0.5 -37.5
v -22.9 0.5 -37.5
v -22.9 0.5 -37.6
v -22.8 0.5 -37.6
v -14.4 0.5 -37.6
v -14.3 0.5 -37.6
v -22.8 0.5 -37.8
v -22.7 0.5 -37.8
v -14.5 0.5 -37.8
v -14.4 0.5 -37.8
v -22.7 0.5 -38
v -22.6 0.5 -38
v -22.6 0.5 -38.1
v -22.5 0.5 -38.1
v -14.6 0.5 -38.1
v -14.5 0.5 -38.1
v -22.5 0.5 -38.2
v -22.4 0.5 -38.2
v -14.7 0.5 -38.3
v -14.6 0.5 -38.3
v -22.4 0.5 -38.4
v -22.3 0.5 -38.4
v -14.8 0.5 -38.4
v -14.7 0.5 -38.4
v -22.3 0.5 -38.5
v -22.2 0.5 -38.5
v -14.9 0.5 -38.5
v -14.8 0.5 -38.5
v -22.2 0.5 -38.6
v -22 0.5 -38.6
v -15 0.5 -38.7
v -14.9 0.5 -38.7
v -22 0.5 -38.8
v -21.9 0.5 -38.8
v -15.2 0.5 -38.8
v -15 0.5 -38.8
v -21.9 0.5 -38.9
v -21.7 0.5 -38.9
v -15.3 0.5 -38.9
v -15.2 0.5 -38.9
v -21.7 0.5 -39
v -21.6 0.5 -39
v -21.6 0.5 -39.1
v -21.5 0.5 -39.1
v -15.4 0.5 -39.1
v -15.3 0.5 -39.1
v -21.5 0.5 -39.2
v -21.3 0.5 -39.2
v -15.6 0.5 -39.2
v -15.4 0.5 -39.2
v -15.8 0.5 -39.3
v -15.6 0.5 -39.3
v -21.3 0.5 -39.4
v -21.2 0.5 -39.4
v -16 0.5 -39.4
v -15.8 0.5 -39.4
v -21.2 0.5 -39.5
v -20.9 0.5 -39.5
v -16.3 0.5 -39.5
v -16 0.5 -39.5
v -20.9 0.5 -39.6
v -20.7 0.5 -39.6
v -16.4 0.5 -39.6
v -16.3 0.5 -39.6
v -20.7 0.5 -39.7
v -20.5 0.5 -39.7
v -16.6 0.5 -39.7
v -16.4 0.5 -39.7
v -20.5 0.5 -39.8
v -20.1 0.5 -39.8
v -16.8 0.5 -39.8
v -16.6 0.5 -39.8
v -20.1 0.5 -39.9
v -19.7 0.5 -39.9
v -17 0.5 -39.9
v -16.8 0.5 -39.9
v -19.7 0.5 -40
v -19 0.5 -40
v -18.8 0.5 -40
v -18.7 0.5 -40
v -17.5 0.5 -40
v -17 0.5 -40
v -19 0.5 -40.1
v -18.8 0.5 -40.1
v -18.7 0.5 -40.1
v -18.4 0.5 -40.1
v -18.2 0.5 -40.1
v -17.5 0.5 -40.1
v -18.4 0.5 -40.2
v -18.2 0.5 -40.2
v -25.6 0.5 -48.4
v 0 0.5 -48.4

# faces
f 3/1/1 2/1/1 1/1/1
f 4/1/1 2/1/1 3/1/1
f 5/1/2 6/1/2 7/1/2
f 7/1/2 6/1/2 8/1/2
f 11/1/3 10/1/3 9/1/3
f 12/1/3 10/1/3 11/1/3
f 13/1/3 11/1/3 9/1/3
f 13/2/3 12/2/3 11/2/3
f 14/2/3 12/2/3 13/2/3
f 15/1/3 13/1/3 9/1/3
f 15/3/3 14/3/3 13/3/3
f 16/3/3 14/3/3 15/3/3
f 17/1/3 15/1/3 9/1/3
f 17/2/3 16/2/3 15/2/3
f 18/2/3 16/2/3 17/2/3
f 19/1/3 17/1/3 9/1/3
f 19/1/3 18/1/3 17/1/3
f 20/1/3 18/1/3 19/1/3
f 21/1/4 22/1/4 23/1/4
f 23/1/4 22/1/4 24/1/4
f 27/1/5 26/1/5 25/1/5
f 28/1/5 26/1/5 27/1/5
f 31/3/6 32/3/6 35/3/6
f 32/2/6 33/2/6 36/2/6
f 35/3/6 32/3/6 36/3/6
f 31/3/6 35/3/6 37/3/6
f 35/2/6 36/2/6 38/2/6
f 37/3/6 35/3/6 38/3/6
f 31/3/6 37/3/6 39/3/6
f 37/2/6 38/2/6 40/2/6
f 39/3/6 37/3/6 40/3/6
f 30/2/6 31/2/6 41/2/6
f 31/3/6 39/3/6 41/3/6
f 41/3/6 39/3/6 42/3/6
f 42/3/6 39/3/6 43/3/6
f 39/2/6 40/2/6 44/2/6
f 43/3/6 39/3/6 44/3/6
f 42/3/6 43/3/6 45/3/6
f 43/2/6 44/2/6 46/2/6
f 45/3/6 43/3/6 46/3/6
f 41/2/6 42/2/6 47/2/6
f 42/3/6 45/3/6 47/3/6
f 47/3/6 45/3/6 48/3/6
f 48/3/6 45/3/6 49/3/6
f 45/2/6 46/2/6 50/2/6
f 49/3/6 45/3/6 50/3/6
f 40/2/6 38/2/6 51/2/6
f 50/2/6 46/2/6 51/2/6
f 36/2/6 33/2/6 51/2/6
f 38/2/6 36/2/6 51/2/6
f 44/2/6 40/2/6 51/2/6
f 46/2/6 44/2/6 51/2/6
f 33/1/6 34/1/6 52/1/6
f 51/2/6 33/2/6 52/2/6
f 47/2/6 48/2/6 53/2/6
f 48/3/6 49/3/6 53/3/6
f 53/3/6 49/3/6 54/3/6
f 29/1/6 30/1/6 55/1/6
f 41/2/6 47/2/6 55/2/6
f 53/2/6 54/2/6 55/2/6
f 47/2/6 53/2/6 55/2/6
f 30/2/6 41/2/6 55/2/6
f 55/2/6 54/2/6 56/2/6
f 54/3/6 49/3/6 57/3/6
f 56/2/6 54/2/6 57/2/6
f 57/3/6 49/3/6 58/3/6
f 58/3/6 49/3/6 59/3/6
f 49/2/6 50/2/6 60/2/6
f 59/3/6 49/3/6 60/3/6
f 50/2/6 51/2/6 60/2/6
f 58/3/6 59/3/6 61/3/6
f 57/2/6 58/2/6 61/2/6
f 56/2/6 57/2/6 61/2/6
f 61/3/6 59/3/6 62/3/6
f 62/3/6 59/3/6 63/3/6
f 59/2/6 60/2/6 64/2/6
f 63/3/6 59/3/6 64/3/6
f 62/3/6 63/3/6 65/3/6
f 61/2/6 62/2/6 65/2/6
f 65/3/6 63/3/6 66/3/6
f 65/2/6 66/2/6 67/2/6
f 66/3/6 63/3/6 67/3/6
f 67/3/6 63/3/6 68/3/6
f 68/3/6 63/3/6 69/3/6
f 63/2/6 64/2/6 70/2/6
f 69/3/6 63/3/6 70/3/6
f 68/3/6 69/3/6 71/3/6
f 67/2/6 68/2/6 71/2/6
f 71/3/6 69/3/6 72/3/6
f 55/1/6 56/1/6 73/1/6
f 56/2/6 61/2/6 73/2/6
f 71/2/6 72/2/6 73/2/6
f 67/2/6 71/2/6 73/2/6
f 61/2/6 65/2/6 73/2/6
f 65/2/6 67/2/6 73/2/6
f 73/2/6 72/2/6 74/2/6
f 72/3/6 69/3/6 75/3/6
f 69/2/6 70/2/6 76/2/6
f 75/3/6 69/3/6 76/3/6
f 74/2/6 72/2/6 77/2/6
f 72/3/6 75/3/6 77/3/6
f 77/3/6 75/3/6 78/3/6
f 76/2/6 70/2/6 79/2/6
f 60/2/6 51/2/6 79/2/6
f 64/2/6 60/2/6 79/2/6
f 75/2/6 76/2/6 79/2/6
f 70/2/6 64/2/6 79/2/6
f 51/1/6 52/1/6 80/1/6
f 79/2/6 51/2/6 80/2/6
f 78/3/6 75/3/6 81/3/6
f 75/2/6 79/2/6 82/2/6
f 81/3/6 75/3/6 82/3/6
f 77/2/6 78/2/6 83/2/6
f 74/2/6 77/2/6 83/2/6
f 73/1/6 74/1/6 83/1/6
f 83/2/6 78/2/6 84/2/6
f 78/3/6 81/3/6 85/3/6
f 84/2/6 78/2/6 85/2/6
f 85/3/6 81/3/6 86/3/6
f 86/3/6 81/3/6 87/3/6
f 81/2/6 82/2/6 88/2/6
f 87/3/6 81/3/6 88/3/6
f 82/2/6 79/2/6 89/2/6
f 88/2/6 82/2/6 89/2/6
f 79/1/6 80/1/6 90/1/6
f 89/2/6 79/2/6 90/2/6
f 86/3/6 87/3/6 91/3/6
f 84/2/6 85/2/6 91/2/6
f 85/2/6 86/2/6 91/2/6
f 91/3/6 87/3/6 92/3/6
f 83/1/6 84/1/6 93/1/6
f 84/2/6 91/2/6 93/2/6
f 91/2/6 92/2/6 93/2/6
f 93/2/6 92/2/6 94/2/6
f 87/2/6 88/2/6 95/2/6
f 88/2/6 89/2/6 95/2/6
f 89/1/6 90/1/6 96/1/6
f 95/2/6 89/2/6 96/2/6
f 92/3/6 87/3/6 97/3/6
f 87/2/6 95/2/6 98/2/6
f 97/3/6 87/3/6 98/3/6
f 94/2/6 92/2/6 99/2/6
f 93/1/6 94/1/6 99/1/6
f 99/2/6 92/2/6 100/2/6
f 92/3/6 97/3/6 101/3/6
f 100/2/6 92/2/6 101/2/6
f 101/3/6 97/3/6 102/3/6
f 102/3/6 97/3/6 103/3/6
f 97/2/6 98/2/6 104/2/6
f 103/3/6 97/3/6 104/3/6
f 102/3/6 103/3/6 105/3/6
f 100/2/6 101/2/6 105/2/6
f 101/2/6 102/2/6 105/2/6
f 105/3/6 103/3/6 106/3/6
f 106/3/6 103/3/6 107/3/6
f 103/2/6 104/2/6 108/2/6
f 107/3/6 103/3/6 108/3/6
f 98/2/6 95/2/6 109/2/6
f 108/2/6 104/2/6 109/2/6
f 104/2/6 98/2/6 109/2/6
f 95/1/6 96/1/6 110/1/6
f 109/2/6 95/2/6 110/2/6
f 105/2/6 106/2/6 111/2/6
f 99/1/6 100/1/6 111/1/6
f 100/2/6 105/2/6 111/2/6
f 111/2/6 106/2/6 112/2/6
f 106/3/6 107/3/6 113/3/6
f 107/2/6 108/2/6 114/2/6
f 113/3/6 107/3/6 114/3/6
f 108/2/6 109/2/6 114/2/6
f 106/3/6 113/3/6 115/3/6
f 112/2/6 106/2/6 115/2/6
f 115/3/6 113/3/6 116/3/6
f 114/2/6 109/2/6 117/2/6
f 113/2/6 114/2/6 117/2/6
f 109/1/6 110/1/6 118/1/6
f 117/2/6 109/2/6 118/2/6
f 111/1/6 112/1/6 119/1/6
f 115/2/6 116/2/6 119/2/6
f 112/2/6 115/2/6 119/2/6
f 119/2/6 116/2/6 120/2/6
f 116/3/6 113/3/6 121/3/6
f 113/2/6 117/2/6 122/2/6
f 121/3/6 113/3/6 122/3/6
f 116/3/6 121/3/6 123/3/6
f 121/2/6 122/2/6 124/2/6
f 123/3/6 121/3/6 124/3/6
f 122/2/6 117/2/6 125/2/6
f 124/2/6 122/2/6 125/2/6
f 117/1/6 118/1/6 126/1/6
f 125/2/6 117/2/6 126/2/6
f 120/2/6 116/2/6 127/2/6
f 119/1/6 120/1/6 127/1/6
f 127/2/6 116/2/6 128/2/6
f 116/3/6 123/3/6 129/3/6
f 128/2/6 116/2/6 129/2/6
f 129/3/6 123/3/6 130/3/6
f 128/2/6 129/2/6 131/2/6
f 130/3/6 123/3/6 131/3/6
f 129/2/6 130/2/6 131/2/6
f 131/3/6 123/3/6 132/3/6
f 132/3/6 123/3/6 133/3/6
f 123/2/6 124/2/6 134/2/6
f 133/3/6 123/3/6 134/3/6
f 124/2/6 125/2/6 134/2/6
f 134/2/6 125/2/6 135/2/6
f 125/1/6 126/1/6 136/1/6
f 135/2/6 125/2/6 136/2/6
f 131/2/6 132/2/6 137/2/6
f 127/1/6 128/1/6 137/1/6
f 128/2/6 131/2/6 137/2/6
f 137/2/6 132/2/6 138/2/6
f 132/3/6 133/3/6 139/3/6
f 138/2/6 132/2/6 139/2/6
f 139/3/6 133/3/6 140/3/6
f 140/3/6 133/3/6 141/3/6
f 134/2/6 135/2/6 142/2/6
f 141/3/6 133/3/6 142/3/6
f 133/2/6 134/2/6 142/2/6
f 142/2/6 135/2/6 143/2/6
f 135/1/6 136/1/6 144/1/6
f 143/2/6 135/2/6 144/2/6
f 140/3/6 141/3/6 145/3/6
f 139/2/6 140/2/6 145/2/6
f 138/2/6 139/2/6 145/2/6
f 145/3/6 141/3/6 146/3/6
f 137/1/6 138/1/6 147/1/6
f 138/2/6 145/2/6 147/2/6
f 145/2/6 146/2/6 147/2/6
f 147/2/6 146/2/6 148/2/6
f 142/2/6 143/2/6 149/2/6
f 141/2/6 142/2/6 149/2/6
f 143/1/6 144/1/6 150/1/6
f 149/2/6 143/2/6 150/2/6
f 148/2/6 146/2/6 151/2/6
f 147/1/6 148/1/6 151/1/6
f 151/2/6 146/2/6 152/2/6
f 146/3/6 141/3/6 153/3/6
f 152/2/6 146/2/6 153/2/6
f 153/3/6 141/3/6 154/3/6
f 154/3/6 141/3/6 155/3/6
f 141/2/6 149/2/6 156/2/6
f 155/3/6 141/3/6 156/3/6
f 156/2/6 149/2/6 157/2/6
f 149/1/6 150/1/6 158/1/6
f 157/2/6 149/2/6 158/2/6
f 154/3/6 155/3/6 159/3/6
f 152/2/6 153/2/6 159/2/6
f 153/2/6 154/2/6 159/2/6
f 159/3/6 155/3/6 160/3/6
f 160/3/6 155/3/6 161/3/6
f 156/2/6 157/2/6 162/2/6
f 161/3/6 155/3/6 162/3/6
f 155/2/6 156/2/6 162/2/6
f 151/1/6 152/1/6 163/1/6
f 159/2/6 160/2/6 163/2/6
f 152/2/6 159/2/6 163/2/6
f 163/2/6 160/2/6 164/2/6
f 160/3/6 161/3/6 165/3/6
f 161/2/6 162/2/6 166/2/6
f 165/3/6 161/3/6 166/3/6
f 162/2/6 157/2/6 167/2/6
f 166/2/6 162/2/6 167/2/6
f 157/1/6 158/1/6 168/1/6
f 167/2/6 157/2/6 168/2/6
f 164/2/6 160/2/6 169/2/6
f 163/1/6 164/1/6 169/1/6
f 169/2/6 160/2/6 170/2/6
f 160/3/6 165/3/6 171/3/6
f 170/2/6 160/2/6 171/2/6
f 171/3/6 165/3/6 172/3/6
f 172/3/6 165/3/6 173/3/6
f 165/2/6 166/2/6 174/2/6
f 173/3/6 165/3/6 174/3/6
f 166/2/6 167/2/6 174/2/6
f 172/3/6 173/3/6 175/3/6
f 173/2/6 174/2/6 176/2/6
f 175/3/6 173/3/6 176/3/6
f 174/2/6 167/2/6 177/2/6
f 176/2/6 174/2/6 177/2/6
f 167/1/6 168/1/6 178/1/6
f 177/2/6 167/2/6 178/2/6
f 171/2/6 172/2/6 179/2/6
f 169/1/6 170/1/6 179/1/6
f 170/2/6 171/2/6 179/2/6
f 179/2/6 172/2/6 180/2/6
f 172/3/6 175/3/6 181/3/6
f 180/2/6 172/2/6 181/2/6
f 181/3/6 175/3/6 182/3/6
f 182/3/6 175/3/6 183/3/6
f 175/2/6 176/2/6 184/2/6
f 183/3/6 175/3/6 184/3/6
f 176/2/6 177/2/6 184/2/6
f 182/3/6 183/3/6 185/3/6
f 183/2/6 184/2/6 186/2/6
f 185/3/6 183/3/6 186/3/6
f 184/2/6 177/2/6 187/2/6
f 186/2/6 184/2/6 187/2/6
f 177/1/6 178/1/6 188/1/6
f 187/2/6 177/2/6 188/2/6
f 181/2/6 182/2/6 189/2/6
f 179/1/6 180/1/6 189/1/6
f 180/2/6 181/2/6 189/2/6
f 189/2/6 182/2/6 190/2/6
f 182/3/6 185/3/6 191/3/6
f 190/2/6 182/2/6 191/2/6
f 191/3/6 185/3/6 192/3/6
f 192/3/6 185/3/6 193/3/6
f 185/2/6 186/2/6 194/2/6
f 193/3/6 185/3/6 194/3/6
f 186/2/6 187/2/6 194/2/6
f 192/3/6 193/3/6 195/3/6
f 191/2/6 192/2/6 195/2/6
f 190/2/6 191/2/6 195/2/6
f 195/3/6 193/3/6 196/3/6
f 196/3/6 193/3/6 197/3/6
f 193/2/6 194/2/6 198/2/6
f 197/3/6 193/3/6 198/3/6
f 189/1/6 190/1/6 199/1/6
f 190/2/6 195/2/6 199/2/6
f 195/2/6 196/2/6 199/2/6
f 199/2/6 196/2/6 200/2/6
f 196/3/6 197/3/6 201/3/6
f 200/2/6 196/2/6 201/2/6
f 201/3/6 197/3/6 202/3/6
f 202/3/6 197/3/6 203/3/6
f 197/2/6 198/2/6 204/2/6
f 203/3/6 197/3/6 204/3/6
f 194/2/6 187/2/6 205/2/6
f 204/2/6 198/2/6 205/2/6
f 198/2/6 194/2/6 205/2/6
f 187/1/6 188/1/6 206/1/6
f 205/2/6 187/2/6 206/2/6
f 201/2/6 202/2/6 207/2/6
f 202/3/6 203/3/6 207/3/6
f 200/2/6 201/2/6 207/2/6
f 207/3/6 203/3/6 208/3/6
f 208/3/6 203/3/6 209/3/6
f 203/2/6 204/2/6 210/2/6
f 209/3/6 203/3/6 210/3/6
f 204/2/6 205/2/6 210/2/6
f 199/1/6 200/1/6 211/1/6
f 207/2/6 208/2/6 211/2/6
f 200/2/6 207/2/6 211/2/6
f 211/2/6 208/2/6 212/2/6
f 208/3/6 209/3/6 213/3/6
f 212/2/6 208/2/6 213/2/6
f 209/2/6 210/2/6 214/2/6
f 213/3/6 209/3/6 214/3/6
f 210/2/6 205/2/6 215/2/6
f 214/2/6 210/2/6 215/2/6
f 205/1/6 206/1/6 216/1/6
f 215/2/6 205/2/6 216/2/6
f 211/1/6 212/1/6 217/1/6
f 213/2/6 214/2/6 217/2/6
f 212/2/6 213/2/6 217/2/6
f 214/2/6 215/2/6 217/2/6
f 217/2/6 215/2/6 218/2/6
f 217/1/6 218/1/6 219/1/6
f 218/2/6 215/2/6 219/2/6
f 219/2/6 215/2/6 220/2/6
f 220/2/6 215/2/6 221/2/6
f 215/1/6 216/1/6 222/1/6
f 221/2/6 215/2/6 222/2/6
f 220/2/6 221/2/6 223/2/6
f 219/1/6 220/1/6 223/1/6
f 223/2/6 221/2/6 224/2/6
f 224/2/6 221/2/6 225/2/6
f 221/1/6 222/1/6 226/1/6
f 225/2/6 221/2/6 226/2/6
f 224/2/6 225/2/6 227/2/6
f 223/1/6 224/1/6 227/1/6
f 227/2/6 225/2/6 228/2/6
f 227/1/6 228/1/6 229/1/6
f 228/2/6 225/2/6 229/2/6
f 229/2/6 225/2/6 230/2/6
f 230/2/6 225/2/6 231/2/6
f 225/1/6 226/1/6 232/1/6
f 231/2/6 225/2/6 232/2/6
f 230/2/6 231/2/6 233/2/6
f 229/1/6 230/1/6 233/1/6
f 233/2/6 231/2/6 234/2/6
f 234/2/6 231/2/6 235/2/6
f 231/1/6 232/1/6 236/1/6
f 235/2/6 231/2/6 236/2/6
f 234/2/6 235/2/6 237/2/6
f 233/1/6 234/1/6 237/1/6
f 237/2/6 235/2/6 238/2/6
f 238/2/6 235/2/6 239/2/6
f 235/1/6 236/1/6 240/1/6
f 239/2/6 235/2/6 240/2/6
f 238/2/6 239/2/6 241/2/6
f 237/1/6 238/1/6 241/1/6
f 241/2/6 239/2/6 242/2/6
f 242/2/6 239/2/6 243/2/6
f 239/1/6 240/1/6 244/1/6
f 243/2/6 239/2/6 244/2/6
f 242/2/6 243/2/6 245/2/6
f 241/1/6 242/1/6 245/1/6
f 245/2/6 243/2/6 246/2/6
f 246/2/6 243/2/6 247/2/6
f 243/1/6 244/1/6 248/1/6
f 247/2/6 243/2/6 248/2/6
f 246/2/6 247/2/6 249/2/6
f 245/1/6 246/1/6 249/1/6
f 249/2/6 247/2/6 250/2/6
f 250/2/6 247/2/6 251/2/6
f 247/1/6 248/1/6 252/1/6
f 251/2/6 247/2/6 252/2/6
f 250/2/6 251/2/6 253/2/6
f 249/1/6 250/1/6 253/1/6
f 253/2/6 251/2/6 254/2/6
f 254/2/6 251/2/6 255/2/6
f 251/1/6 252/1/6 256/1/6
f 255/2/6 251/2/6 256/2/6
f 254/2/6 255/2/6 257/2/6
f 253/1/6 254/1/6 257/1/6
f 257/2/6 255/2/6 258/2/6
f 257/1/6 258/1/6 259/1/6
f 258/2/6 255/2/6 259/2/6
f 259/2/6 255/2/6 260/2/6
f 260/2/6 255/2/6 261/2/6
f 255/1/6 256/1/6 262/1/6
f 261/2/6 255/2/6 262/2/6
f 260/2/6 261/2/6 263/2/6
f 259/1/6 260/1/6 263/1/6
f 263/2/6 261/2/6 264/2/6
f 264/2/6 261/2/6 265/2/6
f 261/1/6 262/1/6 266/1/6
f 265/2/6 261/2/6 266/2/6
f 264/2/6 265/2/6 267/2/6
f 265/1/6 266/1/6 268/1/6
f 267/2/6 265/2/6 268/2/6
f 263/1/6 264/1/6 269/1/6
f 264/2/6 267/2/6 269/2/6
f 269/2/6 267/2/6 270/2/6
f 270/2/6 267/2/6 271/2/6
f 267/1/6 268/1/6 272/1/6
f 271/2/6 267/2/6 272/2/6
f 270/2/6 271/2/6 273/2/6
f 269/1/6 270/1/6 273/1/6
f 273/2/6 271/2/6 274/2/6
f 274/2/6 271/2/6 275/2/6
f 271/1/6 272/1/6 276/1/6
f 275/2/6 271/2/6 276/2/6
f 274/2/6 275/2/6 277/2/6
f 273/1/6 274/1/6 277/1/6
f 277/2/6 275/2/6 278/2/6
f 278/2/6 275/2/6 279/2/6
f 275/1/6 276/1/6 280/1/6
f 279/2/6 275/2/6 280/2/6
f 278/2/6 279/2/6 281/2/6
f 277/1/6 278/1/6 281/1/6
f 281/2/6 279/2/6 282/2/6
f 282/2/6 279/2/6 283/2/6
f 279/1/6 280/1/6 284/1/6
f 283/2/6 279/2/6 284/2/6
f 282/2/6 283/2/6 285/2/6
f 281/1/6 282/1/6 285/1/6
f 285/2/6 283/2/6 286/2/6
f 286/2/6 283/2/6 287/2/6
f 283/1/6 284/1/6 288/1/6
f 287/2/6 283/2/6 288/2/6
f 286/2/6 287/2/6 289/2/6
f 285/1/6 286/1/6 289/1/6
f 289/2/6 287/2/6 290/2/6
f 290/2/6 287/2/6 291/2/6
f 287/1/6 288/1/6 292/1/6
f 291/2/6 287/2/6 292/2/6
f 290/2/6 291/2/6 293/2/6
f 289/1/6 290/1/6 293/1/6
f 293/2/6 291/2/6 294/2/6
f 294/2/6 291/2/6 295/2/6
f 295/2/6 291/2/6 296/2/6
f 296/2/6 291/2/6 297/2/6
f 291/1/6 292/1/6 298/1/6
f 297/2/6 291/2/6 298/2/6
f 293/1/6 294/1/6 299/1/6
f 294/2/6 295/2/6 299/2/6
f 295/1/6 296/1/6 300/1/6
f 299/2/6 295/2/6 300/2/6
f 296/2/6 297/2/6 301/2/6
f 300/1/6 296/1/6 301/1/6
f 301/2/6 297/2/6 302/2/6
f 302/2/6 297/2/6 303/2/6
f 297/1/6 298/1/6 304/1/6
f 303/2/6 297/2/6 304/2/6
f 299/1/6 300/1/6 305/1/6
f 302/2/6 303/2/6 305/2/6
f 300/1/6 301/1/6 305/1/6
f 301/1/6 302/1/6 305/1/6
f 303/1/6 304/1/6 306/1/6
f 305/2/6 303/2/6 306/2/6
f 29/1/6 55/1/6 307/1/6
f 55/1/6 73/1/6 307/1/6
f 305/1/6 306/1/6 307/1/6
f 293/1/6 299/1/6 307/1/6
f 299/1/6 305/1/6 307/1/6
f 73/1/6 83/1/6 307/1/6
f 289/1/6 293/1/6 307/1/6
f 83/1/6 93/1/6 307/1/6
f 285/1/6 289/1/6 307/1/6
f 93/1/6 99/1/6 307/1/6
f 281/1/6 285/1/6 307/1/6
f 99/1/6 111/1/6 307/1/6
f 277/1/6 281/1/6 307/1/6
f 111/1/6 119/1/6 307/1/6
f 273/1/6 277/1/6 307/1/6
f 119/1/6 127/1/6 307/1/6
f 269/1/6 273/1/6 307/1/6
f 127/1/6 137/1/6 307/1/6
f 263/1/6 269/1/6 307/1/6
f 137/1/6 147/1/6 307/1/6
f 147/1/6 151/1/6 307/1/6
f 259/1/6 263/1/6 307/1/6
f 151/1/6 163/1/6 307/1/6
f 257/1/6 259/1/6 307/1/6
f 253/1/6 257/1/6 307/1/6
f 163/1/6 169/1/6 307/1/6
f 249/1/6 253/1/6 307/1/6
f 199/1/6 211/1/6 307/1/6
f 245/1/6 249/1/6 307/1/6
f 169/1/6 179/1/6 307/1/6
f 241/1/6 245/1/6 307/1/6
f 179/1/6 189/1/6 307/1/6
f 237/1/6 241/1/6 307/1/6
f 189/1/6 199/1/6 307/1/6
f 233/1/6 237/1/6 307/1/6
f 211/1/6 217/1/6 307/1/6
f 229/1/6 233/1/6 307/1/6
f 217/1/6 219/1/6 307/1/6
f 227/1/6 229/1/6 307/1/6
f 223/1/6 227/1/6 307/1/6
f 219/1/6 223/1/6 307/1/6
f 80/1/6 52/1/6 308/1/6
f 307/1/6 306/1/6 308/1/6
f 126/1/6 118/1/6 308/1/6
f 226/1/6 222/1/6 308/1/6
f 232/1/6 226/1/6 308/1/6
f 236/1/6 232/1/6 308/1/6
f 240/1/6 236/1/6 308/1/6
f 244/1/6 240/1/6 308/1/6
f 206/1/6 188/1/6 308/1/6
f 248/1/6 244/1/6 308/1/6
f 252/1/6 248/1/6 308/1/6
f 256/1/6 252/1/6 308/1/6
f 188/1/6 178/1/6 308/1/6
f 262/1/6 256/1/6 308/1/6
f 222/1/6 216/1/6 308/1/6
f 178/1/6 168/1/6 308/1/6
f 266/1/6 262/1/6 308/1/6
f 268/1/6 266/1/6 308/1/6
f 168/1/6 158/1/6 308/1/6
f 272/1/6 268/1/6 308/1/6
f 158/1/6 150/1/6 308/1/6
f 276/1/6 272/1/6 308/1/6
f 150/1/6 144/1/6 308/1/6
f 144/1/6 136/1/6 308/1/6
f 280/1/6 276/1/6 308/1/6
f 284/1/6 280/1/6 308/1/6
f 136/1/6 126/1/6 308/1/6
f 288/1/6 284/1/6 308/1/6
f 118/1/6 110/1/6 308/1/6
f 292/1/6 288/1/6 308/1/6
f 216/1/6 206/1/6 308/1/6
f 304/1/6 298/1/6 308/1/6
f 298/1/6 292/1/6 308/1/6
f 110/1/6 96/1/6 308/1/6
f 306/1/6 304/1/6 308/1/6
f 96/1/6 90/1/6 308/1/6
f 52/1/6 34/1/6 308/1/6
f 90/1/6 80/1/6 308/1/6
