# MagicaVoxel @ Ephtracy

# group
o 

# material
mtllib lava_background-32.mtl
usemtl palette

# normals
vn -1 0 0
vn 1 0 0
vn 0 0 1
vn 0 0 -1
vn 0 -1 0
vn 0 1 0

# texcoords
vt 0.0449219 0.5
vt 0.0683594 0.5
vt 0.0917969 0.5

# verts
v -10.8 0 -10.8
v -10.8 0 -18
v -10.8 0.4 -17
v -10.8 0.4 -18
v -10.8 0.5 -10.8
v -10.8 0.5 -17
v -10.8 0.5 -18
v -3.6 0 -10.8
v -3.6 0 -18
v -3.6 0.4 -17.1
v -3.6 0.4 -18
v -3.6 0.5 -10.8
v -3.6 0.5 -17.1
v -3.6 0.5 -18
v -10.8 0 -10.8
v -10.8 0.5 -10.8
v -3.6 0 -10.8
v -3.6 0.5 -10.8
v -10.8 0 -18
v -10.8 0.4 -18
v -10.8 0.5 -18
v -10.3 0.4 -18
v -10.3 0.5 -18
v -4 0.4 -18
v -4 0.5 -18
v -3.6 0 -18
v -3.6 0.4 -18
v -3.6 0.5 -18
v -10.8 0 -10.8
v -3.6 0 -10.8
v -10.8 0 -18
v -3.6 0 -18
v -10.8 0.5 -10.8
v -3.6 0.5 -10.8
v -7.7 0.5 -16.2
v -7.2 0.5 -16.2
v -8.7 0.5 -16.3
v -7.7 0.5 -16.3
v -7.2 0.5 -16.3
v -6.3 0.5 -16.3
v -9.6 0.5 -16.4
v -8.7 0.5 -16.4
v -6.3 0.5 -16.4
v -5.3 0.5 -16.4
v -10 0.5 -16.5
v -9.6 0.5 -16.5
v -5.3 0.5 -16.5
v -4.9 0.5 -16.5
v -10.2 0.5 -16.6
v -10 0.5 -16.6
v -4.9 0.5 -16.6
v -4.6 0.5 -16.6
v -10.4 0.5 -16.7
v -10.2 0.5 -16.7
v -4.6 0.5 -16.7
v -4.2 0.5 -16.7
v -10.6 0.5 -16.8
v -10.4 0.5 -16.8
v -4.2 0.5 -16.8
v -4 0.5 -16.8
v -10.7 0.5 -16.9
v -10.6 0.5 -16.9
v -4 0.5 -16.9
v -3.8 0.5 -16.9
v -10.8 0.5 -17
v -10.7 0.5 -17
v -3.8 0.5 -17
v -3.7 0.5 -17
v -3.7 0.5 -17.1
v -3.6 0.5 -17.1
v -6.8 0.5 -17.3
v -6.7 0.5 -17.3
v -6.6 0.5 -17.3
v -5.6 0.5 -17.3
v -8.3 0.5 -17.4
v -6.8 0.5 -17.4
v -6.7 0.5 -17.4
v -6.6 0.5 -17.4
v -5.6 0.5 -17.4
v -5.2 0.5 -17.4
v -9.3 0.5 -17.5
v -8.3 0.5 -17.5
v -5.2 0.5 -17.5
v -4.9 0.5 -17.5
v -9.5 0.5 -17.6
v -9.3 0.5 -17.6
v -4.9 0.5 -17.6
v -4.7 0.5 -17.6
v -9.9 0.5 -17.7
v -9.5 0.5 -17.7
v -4.7 0.5 -17.7
v -4.5 0.5 -17.7
v -10.2 0.5 -17.8
v -9.9 0.5 -17.8
v -4.5 0.5 -17.8
v -4.1 0.5 -17.8
v -10.3 0.5 -17.9
v -10.2 0.5 -17.9
v -4.1 0.5 -17.9
v -4 0.5 -17.9
v -10.8 0.5 -18
v -10.3 0.5 -18
v -4 0.5 -18
v -3.6 0.5 -18

# faces
f 3/1/1 2/1/1 1/1/1
f 4/1/1 2/1/1 3/1/1
f 5/1/1 3/1/1 1/1/1
f 6/2/1 4/2/1 3/2/1
f 6/1/1 3/1/1 5/1/1
f 7/2/1 4/2/1 6/2/1
f 8/1/2 9/1/2 10/1/2
f 10/1/2 9/1/2 11/1/2
f 8/1/2 10/1/2 12/1/2
f 10/2/2 11/2/2 13/2/2
f 12/1/2 10/1/2 13/1/2
f 13/2/2 11/2/2 14/2/2
f 17/1/3 16/1/3 15/1/3
f 18/1/3 16/1/3 17/1/3
f 19/1/4 20/1/4 22/1/4
f 20/2/4 21/2/4 22/2/4
f 22/2/4 21/2/4 23/2/4
f 19/1/4 22/1/4 24/1/4
f 22/3/4 23/3/4 24/3/4
f 24/3/4 23/3/4 25/3/4
f 19/1/4 24/1/4 26/1/4
f 24/2/4 25/2/4 27/2/4
f 26/1/4 24/1/4 27/1/4
f 27/2/4 25/2/4 28/2/4
f 31/1/5 30/1/5 29/1/5
f 32/1/5 30/1/5 31/1/5
f 33/1/6 34/1/6 35/1/6
f 35/1/6 34/1/6 36/1/6
f 33/1/6 35/1/6 37/1/6
f 35/2/6 36/2/6 38/2/6
f 37/1/6 35/1/6 38/1/6
f 36/1/6 34/1/6 39/1/6
f 38/2/6 36/2/6 39/2/6
f 39/1/6 34/1/6 40/1/6
f 33/1/6 37/1/6 41/1/6
f 37/2/6 38/2/6 42/2/6
f 41/1/6 37/1/6 42/1/6
f 38/2/6 39/2/6 42/2/6
f 39/2/6 40/2/6 42/2/6
f 40/1/6 34/1/6 43/1/6
f 42/2/6 40/2/6 43/2/6
f 43/1/6 34/1/6 44/1/6
f 33/1/6 41/1/6 45/1/6
f 41/2/6 42/2/6 46/2/6
f 45/1/6 41/1/6 46/1/6
f 42/2/6 43/2/6 46/2/6
f 43/2/6 44/2/6 46/2/6
f 44/1/6 34/1/6 47/1/6
f 46/2/6 44/2/6 47/2/6
f 47/1/6 34/1/6 48/1/6
f 33/1/6 45/1/6 49/1/6
f 45/2/6 46/2/6 50/2/6
f 49/1/6 45/1/6 50/1/6
f 46/2/6 47/2/6 50/2/6
f 47/2/6 48/2/6 50/2/6
f 48/1/6 34/1/6 51/1/6
f 50/2/6 48/2/6 51/2/6
f 51/1/6 34/1/6 52/1/6
f 33/1/6 49/1/6 53/1/6
f 49/2/6 50/2/6 54/2/6
f 53/1/6 49/1/6 54/1/6
f 50/2/6 51/2/6 54/2/6
f 51/2/6 52/2/6 54/2/6
f 52/1/6 34/1/6 55/1/6
f 54/2/6 52/2/6 55/2/6
f 55/1/6 34/1/6 56/1/6
f 33/1/6 53/1/6 57/1/6
f 53/2/6 54/2/6 58/2/6
f 57/1/6 53/1/6 58/1/6
f 54/2/6 55/2/6 58/2/6
f 55/2/6 56/2/6 58/2/6
f 56/1/6 34/1/6 59/1/6
f 58/2/6 56/2/6 59/2/6
f 59/1/6 34/1/6 60/1/6
f 33/1/6 57/1/6 61/1/6
f 57/2/6 58/2/6 62/2/6
f 61/1/6 57/1/6 62/1/6
f 58/2/6 59/2/6 62/2/6
f 59/2/6 60/2/6 62/2/6
f 60/1/6 34/1/6 63/1/6
f 62/2/6 60/2/6 63/2/6
f 63/1/6 34/1/6 64/1/6
f 33/1/6 61/1/6 65/1/6
f 61/2/6 62/2/6 66/2/6
f 65/1/6 61/1/6 66/1/6
f 62/2/6 63/2/6 66/2/6
f 63/2/6 64/2/6 66/2/6
f 64/1/6 34/1/6 67/1/6
f 66/2/6 64/2/6 67/2/6
f 67/1/6 34/1/6 68/1/6
f 65/2/6 66/2/6 69/2/6
f 68/1/6 34/1/6 69/1/6
f 67/2/6 68/2/6 69/2/6
f 66/2/6 67/2/6 69/2/6
f 69/1/6 34/1/6 70/1/6
f 65/2/6 69/2/6 71/2/6
f 69/2/6 70/2/6 71/2/6
f 71/2/6 70/2/6 72/2/6
f 72/2/6 70/2/6 73/2/6
f 73/2/6 70/2/6 74/2/6
f 65/2/6 71/2/6 75/2/6
f 71/3/6 72/3/6 76/3/6
f 75/2/6 71/2/6 76/2/6
f 72/2/6 73/2/6 77/2/6
f 76/3/6 72/3/6 77/3/6
f 73/3/6 74/3/6 78/3/6
f 77/2/6 73/2/6 78/2/6
f 74/2/6 70/2/6 79/2/6
f 78/3/6 74/3/6 79/3/6
f 79/2/6 70/2/6 80/2/6
f 65/2/6 75/2/6 81/2/6
f 77/3/6 78/3/6 82/3/6
f 81/2/6 75/2/6 82/2/6
f 75/3/6 76/3/6 82/3/6
f 79/3/6 80/3/6 82/3/6
f 78/3/6 79/3/6 82/3/6
f 76/3/6 77/3/6 82/3/6
f 80/2/6 70/2/6 83/2/6
f 82/3/6 80/3/6 83/3/6
f 83/2/6 70/2/6 84/2/6
f 65/2/6 81/2/6 85/2/6
f 81/3/6 82/3/6 86/3/6
f 85/2/6 81/2/6 86/2/6
f 82/3/6 83/3/6 86/3/6
f 83/3/6 84/3/6 86/3/6
f 84/2/6 70/2/6 87/2/6
f 86/3/6 84/3/6 87/3/6
f 87/2/6 70/2/6 88/2/6
f 65/2/6 85/2/6 89/2/6
f 85/3/6 86/3/6 90/3/6
f 89/2/6 85/2/6 90/2/6
f 86/3/6 87/3/6 90/3/6
f 87/3/6 88/3/6 90/3/6
f 88/2/6 70/2/6 91/2/6
f 90/3/6 88/3/6 91/3/6
f 91/2/6 70/2/6 92/2/6
f 65/2/6 89/2/6 93/2/6
f 89/3/6 90/3/6 94/3/6
f 93/2/6 89/2/6 94/2/6
f 90/3/6 91/3/6 94/3/6
f 91/3/6 92/3/6 94/3/6
f 92/2/6 70/2/6 95/2/6
f 94/3/6 92/3/6 95/3/6
f 95/2/6 70/2/6 96/2/6
f 65/2/6 93/2/6 97/2/6
f 93/3/6 94/3/6 98/3/6
f 97/2/6 93/2/6 98/2/6
f 94/3/6 95/3/6 98/3/6
f 95/3/6 96/3/6 98/3/6
f 96/2/6 70/2/6 99/2/6
f 98/3/6 96/3/6 99/3/6
f 99/2/6 70/2/6 100/2/6
f 65/2/6 97/2/6 101/2/6
f 97/3/6 98/3/6 102/3/6
f 101/2/6 97/2/6 102/2/6
f 98/3/6 99/3/6 102/3/6
f 99/3/6 100/3/6 102/3/6
f 100/2/6 70/2/6 103/2/6
f 102/3/6 100/3/6 103/3/6
f 103/2/6 70/2/6 104/2/6
