# MagicaVoxel @ Ephtracy

# group
o 

# material
mtllib lava_background-58.mtl
usemtl palette

# normals
vn -1 0 0
vn 1 0 0
vn 0 0 1
vn 0 0 -1
vn 0 -1 0
vn 0 1 0

# texcoords
vt 0.0449219 0.5
vt 0.0683594 0.5
vt 0.0917969 0.5

# verts
v -25.2 0 3.6
v -25.2 0 -3.6
v -25.2 0.5 3.6
v -25.2 0.5 -3.6
v -18 0 3.6
v -18 0 -3.6
v -18 0.4 3.6
v -18 0.4 2.8
v -18 0.4 1.3
v -18 0.5 3.6
v -18 0.5 2.8
v -18 0.5 1.3
v -18 0.5 -3.6
v -25.2 0 3.6
v -25.2 0.5 3.6
v -19.5 0.4 3.6
v -19.5 0.5 3.6
v -18.5 0.4 3.6
v -18.5 0.5 3.6
v -18 0 3.6
v -18 0.4 3.6
v -18 0.5 3.6
v -25.2 0 -3.6
v -25.2 0.5 -3.6
v -18 0 -3.6
v -18 0.5 -3.6
v -25.2 0 3.6
v -18 0 3.6
v -25.2 0 -3.6
v -18 0 -3.6
v -25.2 0.5 3.6
v -19.5 0.5 3.6
v -18.5 0.5 3.6
v -18 0.5 3.6
v -19.6 0.5 3.5
v -19.5 0.5 3.5
v -19.6 0.5 3.4
v -19.5 0.5 3.4
v -18.5 0.5 3.4
v -18.4 0.5 3.4
v -18.4 0.5 3.2
v -18.3 0.5 3.2
v -18.3 0.5 3.1
v -18.2 0.5 3.1
v -18.2 0.5 3
v -18.1 0.5 3
v -19.5 0.5 2.9
v -19.4 0.5 2.9
v -18.1 0.5 2.8
v -18 0.5 2.8
v -19.4 0.5 2.6
v -19.3 0.5 2.6
v -19.3 0.5 2.3
v -19.2 0.5 2.3
v -19.2 0.5 2.1
v -19.1 0.5 2.1
v -19.1 0.5 2
v -18.9 0.5 2
v -18.9 0.5 1.9
v -18.8 0.5 1.9
v -18.8 0.5 1.8
v -18.7 0.5 1.8
v -18.7 0.5 1.7
v -18.5 0.5 1.7
v -18.5 0.5 1.6
v -18.3 0.5 1.6
v -18.3 0.5 1.5
v -18.2 0.5 1.5
v -18.2 0.5 1.4
v -18.1 0.5 1.4
v -18.1 0.5 1.3
v -18 0.5 1.3
v -25.2 0.5 -3.6
v -18 0.5 -3.6

# faces
f 3/1/1 2/1/1 1/1/1
f 4/1/1 2/1/1 3/1/1
f 5/1/2 6/1/2 7/1/2
f 7/1/2 6/1/2 8/1/2
f 8/1/2 6/1/2 9/1/2
f 7/3/2 8/3/2 10/3/2
f 8/2/2 9/2/2 11/2/2
f 10/3/2 8/3/2 11/3/2
f 9/1/2 6/1/2 12/1/2
f 11/2/2 9/2/2 12/2/2
f 12/1/2 6/1/2 13/1/2
f 16/1/3 15/1/3 14/1/3
f 17/1/3 15/1/3 16/1/3
f 18/1/3 16/1/3 14/1/3
f 18/2/3 17/2/3 16/2/3
f 19/2/3 17/2/3 18/2/3
f 20/1/3 18/1/3 14/1/3
f 21/3/3 19/3/3 18/3/3
f 21/1/3 18/1/3 20/1/3
f 22/3/3 19/3/3 21/3/3
f 23/1/4 24/1/4 25/1/4
f 25/1/4 24/1/4 26/1/4
f 29/1/5 28/1/5 27/1/5
f 30/1/5 28/1/5 29/1/5
f 31/1/6 32/1/6 35/1/6
f 32/2/6 33/2/6 36/2/6
f 35/1/6 32/1/6 36/1/6
f 31/1/6 35/1/6 37/1/6
f 35/2/6 36/2/6 37/2/6
f 36/2/6 33/2/6 38/2/6
f 37/2/6 36/2/6 38/2/6
f 33/3/6 34/3/6 39/3/6
f 38/2/6 33/2/6 39/2/6
f 39/3/6 34/3/6 40/3/6
f 38/2/6 39/2/6 41/2/6
f 40/3/6 34/3/6 41/3/6
f 39/2/6 40/2/6 41/2/6
f 41/3/6 34/3/6 42/3/6
f 41/2/6 42/2/6 43/2/6
f 42/3/6 34/3/6 43/3/6
f 43/3/6 34/3/6 44/3/6
f 43/2/6 44/2/6 45/2/6
f 44/3/6 34/3/6 45/3/6
f 45/3/6 34/3/6 46/3/6
f 37/1/6 38/1/6 47/1/6
f 38/2/6 41/2/6 47/2/6
f 45/2/6 46/2/6 47/2/6
f 43/2/6 45/2/6 47/2/6
f 41/2/6 43/2/6 47/2/6
f 47/2/6 46/2/6 48/2/6
f 46/3/6 34/3/6 49/3/6
f 48/2/6 46/2/6 49/2/6
f 49/3/6 34/3/6 50/3/6
f 47/1/6 48/1/6 51/1/6
f 48/2/6 49/2/6 51/2/6
f 49/2/6 50/2/6 51/2/6
f 51/2/6 50/2/6 52/2/6
f 51/1/6 52/1/6 53/1/6
f 52/2/6 50/2/6 53/2/6
f 53/2/6 50/2/6 54/2/6
f 53/1/6 54/1/6 55/1/6
f 54/2/6 50/2/6 55/2/6
f 55/2/6 50/2/6 56/2/6
f 55/1/6 56/1/6 57/1/6
f 56/2/6 50/2/6 57/2/6
f 57/2/6 50/2/6 58/2/6
f 57/1/6 58/1/6 59/1/6
f 58/2/6 50/2/6 59/2/6
f 59/2/6 50/2/6 60/2/6
f 59/1/6 60/1/6 61/1/6
f 60/2/6 50/2/6 61/2/6
f 61/2/6 50/2/6 62/2/6
f 61/1/6 62/1/6 63/1/6
f 62/2/6 50/2/6 63/2/6
f 63/2/6 50/2/6 64/2/6
f 63/1/6 64/1/6 65/1/6
f 64/2/6 50/2/6 65/2/6
f 65/2/6 50/2/6 66/2/6
f 65/1/6 66/1/6 67/1/6
f 66/2/6 50/2/6 67/2/6
f 67/2/6 50/2/6 68/2/6
f 67/1/6 68/1/6 69/1/6
f 68/2/6 50/2/6 69/2/6
f 69/2/6 50/2/6 70/2/6
f 69/1/6 70/1/6 71/1/6
f 70/2/6 50/2/6 71/2/6
f 71/2/6 50/2/6 72/2/6
f 31/1/6 37/1/6 73/1/6
f 37/1/6 47/1/6 73/1/6
f 71/1/6 72/1/6 73/1/6
f 69/1/6 71/1/6 73/1/6
f 67/1/6 69/1/6 73/1/6
f 65/1/6 67/1/6 73/1/6
f 63/1/6 65/1/6 73/1/6
f 61/1/6 63/1/6 73/1/6
f 59/1/6 61/1/6 73/1/6
f 57/1/6 59/1/6 73/1/6
f 55/1/6 57/1/6 73/1/6
f 53/1/6 55/1/6 73/1/6
f 51/1/6 53/1/6 73/1/6
f 47/1/6 51/1/6 73/1/6
f 73/1/6 72/1/6 74/1/6
