# MagicaVoxel @ Ephtracy

# group
o 

# material
mtllib lava_background-14.mtl
usemtl palette

# normals
vn -1 0 0
vn 1 0 0
vn 0 0 1
vn 0 0 -1
vn 0 -1 0
vn 0 1 0

# texcoords
vt 0.0449219 0.5
vt 0.0683594 0.5
vt 0.0917969 0.5

# verts
v 18 0 -18
v 18 0 -25.2
v 18 0.4 -22
v 18 0.4 -23.6
v 18 0.4 -25.2
v 18 0.5 -18
v 18 0.5 -22
v 18 0.5 -23.6
v 18 0.5 -25.2
v 25.2 0 -18
v 25.2 0 -25.2
v 25.2 0.5 -18
v 25.2 0.5 -25.2
v 18 0 -18
v 18 0.5 -18
v 25.2 0 -18
v 25.2 0.5 -18
v 18 0 -25.2
v 18 0.4 -25.2
v 18 0.5 -25.2
v 19.4 0.4 -25.2
v 19.4 0.5 -25.2
v 20.9 0.4 -25.2
v 20.9 0.5 -25.2
v 25.2 0 -25.2
v 25.2 0.5 -25.2
v 18 0 -18
v 25.2 0 -18
v 18 0 -25.2
v 25.2 0 -25.2
v 18 0.5 -18
v 25.2 0.5 -18
v 18 0.5 -22
v 18.2 0.5 -22
v 18.2 0.5 -22.1
v 18.3 0.5 -22.1
v 18.3 0.5 -22.3
v 18.4 0.5 -22.3
v 18.4 0.5 -22.4
v 18.5 0.5 -22.4
v 18.5 0.5 -22.5
v 18.6 0.5 -22.5
v 18.6 0.5 -22.6
v 18.7 0.5 -22.6
v 18.7 0.5 -22.7
v 18.8 0.5 -22.7
v 18.8 0.5 -22.8
v 18.9 0.5 -22.8
v 18.9 0.5 -22.9
v 19 0.5 -22.9
v 19 0.5 -23
v 19.1 0.5 -23
v 19.1 0.5 -23.1
v 19.2 0.5 -23.1
v 19.2 0.5 -23.2
v 19.3 0.5 -23.2
v 19.3 0.5 -23.3
v 19.4 0.5 -23.3
v 19.4 0.5 -23.4
v 19.5 0.5 -23.4
v 19.5 0.5 -23.5
v 19.6 0.5 -23.5
v 18 0.5 -23.6
v 18.2 0.5 -23.6
v 19.6 0.5 -23.6
v 19.7 0.5 -23.6
v 18.2 0.5 -23.7
v 18.3 0.5 -23.7
v 19.7 0.5 -23.7
v 19.8 0.5 -23.7
v 18.3 0.5 -23.8
v 18.4 0.5 -23.8
v 19.8 0.5 -23.8
v 19.9 0.5 -23.8
v 18.4 0.5 -23.9
v 18.5 0.5 -23.9
v 19.9 0.5 -24
v 20 0.5 -24
v 18.5 0.5 -24.1
v 18.6 0.5 -24.1
v 18.6 0.5 -24.2
v 18.7 0.5 -24.2
v 20 0.5 -24.2
v 20.1 0.5 -24.2
v 18.7 0.5 -24.3
v 18.8 0.5 -24.3
v 20.1 0.5 -24.3
v 20.3 0.5 -24.3
v 18.8 0.5 -24.4
v 18.9 0.5 -24.4
v 20.3 0.5 -24.5
v 20.4 0.5 -24.5
v 18.9 0.5 -24.6
v 19 0.5 -24.6
v 20.4 0.5 -24.6
v 20.5 0.5 -24.6
v 19 0.5 -24.7
v 19.1 0.5 -24.7
v 20.5 0.5 -24.7
v 20.6 0.5 -24.7
v 19.1 0.5 -24.8
v 19.2 0.5 -24.8
v 20.6 0.5 -24.8
v 20.7 0.5 -24.8
v 19.2 0.5 -24.9
v 19.3 0.5 -24.9
v 20.7 0.5 -24.9
v 20.8 0.5 -24.9
v 20.8 0.5 -25
v 20.9 0.5 -25
v 19.3 0.5 -25.1
v 19.4 0.5 -25.1
v 18 0.5 -25.2
v 19.4 0.5 -25.2
v 20.9 0.5 -25.2
v 25.2 0.5 -25.2

# faces
f 3/1/1 2/1/1 1/1/1
f 4/1/1 2/1/1 3/1/1
f 5/1/1 2/1/1 4/1/1
f 6/1/1 3/1/1 1/1/1
f 7/2/1 4/2/1 3/2/1
f 7/1/1 3/1/1 6/1/1
f 8/3/1 5/3/1 4/3/1
f 8/2/1 4/2/1 7/2/1
f 9/3/1 5/3/1 8/3/1
f 10/1/2 11/1/2 12/1/2
f 12/1/2 11/1/2 13/1/2
f 16/1/3 15/1/3 14/1/3
f 17/1/3 15/1/3 16/1/3
f 18/1/4 19/1/4 21/1/4
f 19/3/4 20/3/4 21/3/4
f 21/3/4 20/3/4 22/3/4
f 18/1/4 21/1/4 23/1/4
f 21/2/4 22/2/4 23/2/4
f 23/2/4 22/2/4 24/2/4
f 18/1/4 23/1/4 25/1/4
f 23/1/4 24/1/4 25/1/4
f 25/1/4 24/1/4 26/1/4
f 29/1/5 28/1/5 27/1/5
f 30/1/5 28/1/5 29/1/5
f 31/1/6 32/1/6 33/1/6
f 33/1/6 32/1/6 34/1/6
f 33/2/6 34/2/6 35/2/6
f 34/1/6 32/1/6 35/1/6
f 35/1/6 32/1/6 36/1/6
f 35/2/6 36/2/6 37/2/6
f 36/1/6 32/1/6 37/1/6
f 37/1/6 32/1/6 38/1/6
f 37/2/6 38/2/6 39/2/6
f 38/1/6 32/1/6 39/1/6
f 39/1/6 32/1/6 40/1/6
f 39/2/6 40/2/6 41/2/6
f 40/1/6 32/1/6 41/1/6
f 41/1/6 32/1/6 42/1/6
f 41/2/6 42/2/6 43/2/6
f 42/1/6 32/1/6 43/1/6
f 43/1/6 32/1/6 44/1/6
f 43/2/6 44/2/6 45/2/6
f 44/1/6 32/1/6 45/1/6
f 45/1/6 32/1/6 46/1/6
f 45/2/6 46/2/6 47/2/6
f 46/1/6 32/1/6 47/1/6
f 47/1/6 32/1/6 48/1/6
f 47/2/6 48/2/6 49/2/6
f 48/1/6 32/1/6 49/1/6
f 49/1/6 32/1/6 50/1/6
f 49/2/6 50/2/6 51/2/6
f 50/1/6 32/1/6 51/1/6
f 51/1/6 32/1/6 52/1/6
f 51/2/6 52/2/6 53/2/6
f 52/1/6 32/1/6 53/1/6
f 53/1/6 32/1/6 54/1/6
f 53/2/6 54/2/6 55/2/6
f 54/1/6 32/1/6 55/1/6
f 55/1/6 32/1/6 56/1/6
f 55/2/6 56/2/6 57/2/6
f 56/1/6 32/1/6 57/1/6
f 57/1/6 32/1/6 58/1/6
f 57/2/6 58/2/6 59/2/6
f 58/1/6 32/1/6 59/1/6
f 59/1/6 32/1/6 60/1/6
f 59/2/6 60/2/6 61/2/6
f 60/1/6 32/1/6 61/1/6
f 61/1/6 32/1/6 62/1/6
f 33/2/6 35/2/6 63/2/6
f 35/2/6 37/2/6 63/2/6
f 61/2/6 62/2/6 63/2/6
f 59/2/6 61/2/6 63/2/6
f 57/2/6 59/2/6 63/2/6
f 55/2/6 57/2/6 63/2/6
f 53/2/6 55/2/6 63/2/6
f 51/2/6 53/2/6 63/2/6
f 49/2/6 51/2/6 63/2/6
f 47/2/6 49/2/6 63/2/6
f 45/2/6 47/2/6 63/2/6
f 43/2/6 45/2/6 63/2/6
f 41/2/6 43/2/6 63/2/6
f 39/2/6 41/2/6 63/2/6
f 37/2/6 39/2/6 63/2/6
f 63/2/6 62/2/6 64/2/6
f 62/1/6 32/1/6 65/1/6
f 64/2/6 62/2/6 65/2/6
f 65/1/6 32/1/6 66/1/6
f 63/3/6 64/3/6 67/3/6
f 64/2/6 65/2/6 67/2/6
f 65/2/6 66/2/6 67/2/6
f 67/2/6 66/2/6 68/2/6
f 66/1/6 32/1/6 69/1/6
f 68/2/6 66/2/6 69/2/6
f 69/1/6 32/1/6 70/1/6
f 67/3/6 68/3/6 71/3/6
f 68/2/6 69/2/6 71/2/6
f 69/2/6 70/2/6 71/2/6
f 71/2/6 70/2/6 72/2/6
f 70/1/6 32/1/6 73/1/6
f 72/2/6 70/2/6 73/2/6
f 73/1/6 32/1/6 74/1/6
f 71/3/6 72/3/6 75/3/6
f 72/2/6 73/2/6 75/2/6
f 73/2/6 74/2/6 75/2/6
f 75/2/6 74/2/6 76/2/6
f 74/1/6 32/1/6 77/1/6
f 76/2/6 74/2/6 77/2/6
f 77/1/6 32/1/6 78/1/6
f 75/3/6 76/3/6 79/3/6
f 76/2/6 77/2/6 79/2/6
f 77/2/6 78/2/6 79/2/6
f 79/2/6 78/2/6 80/2/6
f 79/3/6 80/3/6 81/3/6
f 80/2/6 78/2/6 81/2/6
f 81/2/6 78/2/6 82/2/6
f 78/1/6 32/1/6 83/1/6
f 82/2/6 78/2/6 83/2/6
f 83/1/6 32/1/6 84/1/6
f 81/3/6 82/3/6 85/3/6
f 82/2/6 83/2/6 85/2/6
f 83/2/6 84/2/6 85/2/6
f 85/2/6 84/2/6 86/2/6
f 84/1/6 32/1/6 87/1/6
f 86/2/6 84/2/6 87/2/6
f 87/1/6 32/1/6 88/1/6
f 85/3/6 86/3/6 89/3/6
f 86/2/6 87/2/6 89/2/6
f 87/2/6 88/2/6 89/2/6
f 89/2/6 88/2/6 90/2/6
f 88/1/6 32/1/6 91/1/6
f 90/2/6 88/2/6 91/2/6
f 91/1/6 32/1/6 92/1/6
f 89/3/6 90/3/6 93/3/6
f 90/2/6 91/2/6 93/2/6
f 91/2/6 92/2/6 93/2/6
f 93/2/6 92/2/6 94/2/6
f 92/1/6 32/1/6 95/1/6
f 94/2/6 92/2/6 95/2/6
f 95/1/6 32/1/6 96/1/6
f 93/3/6 94/3/6 97/3/6
f 94/2/6 95/2/6 97/2/6
f 95/2/6 96/2/6 97/2/6
f 97/2/6 96/2/6 98/2/6
f 96/1/6 32/1/6 99/1/6
f 98/2/6 96/2/6 99/2/6
f 99/1/6 32/1/6 100/1/6
f 97/3/6 98/3/6 101/3/6
f 98/2/6 99/2/6 101/2/6
f 99/2/6 100/2/6 101/2/6
f 101/2/6 100/2/6 102/2/6
f 100/1/6 32/1/6 103/1/6
f 102/2/6 100/2/6 103/2/6
f 103/1/6 32/1/6 104/1/6
f 101/3/6 102/3/6 105/3/6
f 102/2/6 103/2/6 105/2/6
f 103/2/6 104/2/6 105/2/6
f 105/2/6 104/2/6 106/2/6
f 104/1/6 32/1/6 107/1/6
f 106/2/6 104/2/6 107/2/6
f 107/1/6 32/1/6 108/1/6
f 106/2/6 107/2/6 109/2/6
f 108/1/6 32/1/6 109/1/6
f 107/2/6 108/2/6 109/2/6
f 109/1/6 32/1/6 110/1/6
f 105/3/6 106/3/6 111/3/6
f 106/2/6 109/2/6 111/2/6
f 109/2/6 110/2/6 111/2/6
f 111/2/6 110/2/6 112/2/6
f 63/3/6 67/3/6 113/3/6
f 67/3/6 71/3/6 113/3/6
f 111/3/6 112/3/6 113/3/6
f 105/3/6 111/3/6 113/3/6
f 101/3/6 105/3/6 113/3/6
f 97/3/6 101/3/6 113/3/6
f 93/3/6 97/3/6 113/3/6
f 89/3/6 93/3/6 113/3/6
f 85/3/6 89/3/6 113/3/6
f 81/3/6 85/3/6 113/3/6
f 79/3/6 81/3/6 113/3/6
f 75/3/6 79/3/6 113/3/6
f 71/3/6 75/3/6 113/3/6
f 112/2/6 110/2/6 114/2/6
f 113/3/6 112/3/6 114/3/6
f 110/1/6 32/1/6 115/1/6
f 114/2/6 110/2/6 115/2/6
f 115/1/6 32/1/6 116/1/6
