# MagicaVoxel @ Ephtracy

# group
o 

# material
mtllib lava_background-64.mtl
usemtl palette

# normals
vn -1 0 0
vn 1 0 0
vn 0 0 1
vn 0 0 -1
vn 0 -1 0
vn 0 1 0

# texcoords
vt 0.0449219 0.5
vt 0.0683594 0.5

# verts
v -3.6 0 3.6
v -3.6 0 -3.6
v -3.6 0.5 3.6
v -3.6 0.5 -3.6
v 3.6 0 3.6
v 3.6 0 -3.6
v 3.6 0.5 3.6
v 3.6 0.5 -3.6
v -3.6 0 3.6
v -3.6 0.5 3.6
v 3.6 0 3.6
v 3.6 0.5 3.6
v -3.6 0 -3.6
v -3.6 0.5 -3.6
v -2.4 0.4 -3.6
v -2.4 0.5 -3.6
v 2.5 0.4 -3.6
v 2.5 0.5 -3.6
v 2.6 0.4 -3.6
v 2.6 0.5 -3.6
v 2.8 0.4 -3.6
v 2.8 0.5 -3.6
v 3.6 0 -3.6
v 3.6 0.5 -3.6
v -3.6 0 3.6
v 3.6 0 3.6
v -3.6 0 -3.6
v 3.6 0 -3.6
v -3.6 0.5 3.6
v 3.6 0.5 3.6
v -0.7 0.5 -2.8
v 1.4 0.5 -2.8
v -1 0.5 -2.9
v -0.7 0.5 -2.9
v 1.4 0.5 -2.9
v 1.7 0.5 -2.9
v -1.1 0.5 -3
v -1 0.5 -3
v 1.7 0.5 -3
v 2 0.5 -3
v -1.3 0.5 -3.1
v -1.1 0.5 -3.1
v 2 0.5 -3.1
v 2.2 0.5 -3.1
v -1.7 0.5 -3.2
v -1.3 0.5 -3.2
v 2.2 0.5 -3.2
v 2.4 0.5 -3.2
v -2.1 0.5 -3.3
v -1.7 0.5 -3.3
v 2.4 0.5 -3.3
v 2.5 0.5 -3.3
v -2.3 0.5 -3.4
v -2.1 0.5 -3.4
v 2.5 0.5 -3.4
v 2.7 0.5 -3.4
v -2.4 0.5 -3.5
v -2.3 0.5 -3.5
v 2.5 0.5 -3.5
v 2.6 0.5 -3.5
v 2.7 0.5 -3.5
v 2.8 0.5 -3.5
v -3.6 0.5 -3.6
v -2.4 0.5 -3.6
v 2.5 0.5 -3.6
v 2.6 0.5 -3.6
v 2.8 0.5 -3.6
v 3.6 0.5 -3.6

# faces
f 3/1/1 2/1/1 1/1/1
f 4/1/1 2/1/1 3/1/1
f 5/1/2 6/1/2 7/1/2
f 7/1/2 6/1/2 8/1/2
f 11/1/3 10/1/3 9/1/3
f 12/1/3 10/1/3 11/1/3
f 13/1/4 14/1/4 15/1/4
f 15/1/4 14/1/4 16/1/4
f 13/1/4 15/1/4 17/1/4
f 15/2/4 16/2/4 17/2/4
f 17/2/4 16/2/4 18/2/4
f 13/1/4 17/1/4 19/1/4
f 17/1/4 18/1/4 19/1/4
f 19/1/4 18/1/4 20/1/4
f 13/1/4 19/1/4 21/1/4
f 19/2/4 20/2/4 21/2/4
f 21/2/4 20/2/4 22/2/4
f 13/1/4 21/1/4 23/1/4
f 21/1/4 22/1/4 23/1/4
f 23/1/4 22/1/4 24/1/4
f 27/1/5 26/1/5 25/1/5
f 28/1/5 26/1/5 27/1/5
f 29/1/6 30/1/6 31/1/6
f 31/1/6 30/1/6 32/1/6
f 29/1/6 31/1/6 33/1/6
f 31/2/6 32/2/6 34/2/6
f 33/1/6 31/1/6 34/1/6
f 32/1/6 30/1/6 35/1/6
f 34/2/6 32/2/6 35/2/6
f 35/1/6 30/1/6 36/1/6
f 29/1/6 33/1/6 37/1/6
f 33/2/6 34/2/6 38/2/6
f 37/1/6 33/1/6 38/1/6
f 34/2/6 35/2/6 38/2/6
f 35/2/6 36/2/6 38/2/6
f 36/1/6 30/1/6 39/1/6
f 38/2/6 36/2/6 39/2/6
f 39/1/6 30/1/6 40/1/6
f 29/1/6 37/1/6 41/1/6
f 37/2/6 38/2/6 42/2/6
f 41/1/6 37/1/6 42/1/6
f 38/2/6 39/2/6 42/2/6
f 39/2/6 40/2/6 42/2/6
f 40/1/6 30/1/6 43/1/6
f 42/2/6 40/2/6 43/2/6
f 43/1/6 30/1/6 44/1/6
f 29/1/6 41/1/6 45/1/6
f 41/2/6 42/2/6 46/2/6
f 45/1/6 41/1/6 46/1/6
f 42/2/6 43/2/6 46/2/6
f 43/2/6 44/2/6 46/2/6
f 44/1/6 30/1/6 47/1/6
f 46/2/6 44/2/6 47/2/6
f 47/1/6 30/1/6 48/1/6
f 29/1/6 45/1/6 49/1/6
f 45/2/6 46/2/6 50/2/6
f 49/1/6 45/1/6 50/1/6
f 46/2/6 47/2/6 50/2/6
f 47/2/6 48/2/6 50/2/6
f 48/1/6 30/1/6 51/1/6
f 50/2/6 48/2/6 51/2/6
f 51/1/6 30/1/6 52/1/6
f 29/1/6 49/1/6 53/1/6
f 49/2/6 50/2/6 54/2/6
f 53/1/6 49/1/6 54/1/6
f 50/2/6 51/2/6 54/2/6
f 51/2/6 52/2/6 54/2/6
f 52/1/6 30/1/6 55/1/6
f 54/2/6 52/2/6 55/2/6
f 55/1/6 30/1/6 56/1/6
f 29/1/6 53/1/6 57/1/6
f 53/2/6 54/2/6 58/2/6
f 57/1/6 53/1/6 58/1/6
f 54/2/6 55/2/6 58/2/6
f 55/2/6 56/2/6 58/2/6
f 58/2/6 56/2/6 59/2/6
f 59/2/6 56/2/6 60/2/6
f 56/1/6 30/1/6 61/1/6
f 60/2/6 56/2/6 61/2/6
f 61/1/6 30/1/6 62/1/6
f 29/1/6 57/1/6 63/1/6
f 57/2/6 58/2/6 64/2/6
f 63/1/6 57/1/6 64/1/6
f 58/2/6 59/2/6 64/2/6
f 59/1/6 60/1/6 65/1/6
f 64/2/6 59/2/6 65/2/6
f 61/2/6 62/2/6 66/2/6
f 65/1/6 60/1/6 66/1/6
f 60/2/6 61/2/6 66/2/6
f 62/1/6 30/1/6 67/1/6
f 66/2/6 62/2/6 67/2/6
f 67/1/6 30/1/6 68/1/6
