# MagicaVoxel @ Ephtracy

# group
o 

# material
mtllib lava_background-36.mtl
usemtl palette

# normals
vn -1 0 0
vn 1 0 0
vn 0 0 1
vn 0 0 -1
vn 0 -1 0
vn 0 1 0

# texcoords
vt 0.0449219 0.5
vt 0.0683594 0.5

# verts
v -3.6 0 -10.8
v -3.6 0 -18
v -3.6 0.4 -17.2
v -3.6 0.4 -18
v -3.6 0.5 -10.8
v -3.6 0.5 -17.2
v -3.6 0.5 -18
v 3.6 0 -10.8
v 3.6 0 -18
v 3.6 0.5 -10.8
v 3.6 0.5 -18
v -3.6 0 -10.8
v -3.6 0.5 -10.8
v -2.1 0.4 -10.8
v -2.1 0.5 -10.8
v 2.8 0.3 -10.8
v 2.8 0.4 -10.8
v 2.8 0.5 -10.8
v 2.9 0.3 -10.8
v 2.9 0.4 -10.8
v 3.6 0 -10.8
v 3.6 0.5 -10.8
v -3.6 0 -18
v -3.6 0.4 -18
v -3.6 0.5 -18
v -2.7 0.4 -18
v -2.7 0.5 -18
v 3.6 0 -18
v 3.6 0.5 -18
v -3.6 0 -10.8
v 3.6 0 -10.8
v -3.6 0 -18
v 3.6 0 -18
v -3.6 0.5 -10.8
v -2.1 0.5 -10.8
v 2.8 0.5 -10.8
v 3.6 0.5 -10.8
v -2.1 0.5 -10.9
v -2 0.5 -10.9
v -2 0.5 -11
v -1.8 0.5 -11
v 2.7 0.5 -11
v 2.8 0.5 -11
v -1.8 0.5 -11.1
v -1.7 0.5 -11.1
v 2.5 0.5 -11.1
v 2.7 0.5 -11.1
v -1.7 0.5 -11.2
v -1.2 0.5 -11.2
v 2.2 0.5 -11.2
v 2.5 0.5 -11.2
v -1.2 0.5 -11.3
v -0.8 0.5 -11.3
v 1.8 0.5 -11.3
v 2.2 0.5 -11.3
v -0.8 0.5 -11.4
v -0.5 0.5 -11.4
v 1.5 0.5 -11.4
v 1.8 0.5 -11.4
v -0.5 0.5 -11.5
v 0 0.5 -11.5
v 0.8 0.5 -11.5
v 1.5 0.5 -11.5
v 0 0.5 -11.6
v 0.8 0.5 -11.6
v -3.6 0.5 -17.2
v -3.4 0.5 -17.2
v -3.4 0.5 -17.3
v -3.2 0.5 -17.3
v -3.2 0.5 -17.5
v -3 0.5 -17.5
v -3 0.5 -17.6
v -2.9 0.5 -17.6
v -2.9 0.5 -17.8
v -2.8 0.5 -17.8
v -2.8 0.5 -17.9
v -2.7 0.5 -17.9
v -3.6 0.5 -18
v -2.7 0.5 -18
v 3.6 0.5 -18

# faces
f 3/1/1 2/1/1 1/1/1
f 4/1/1 2/1/1 3/1/1
f 5/1/1 3/1/1 1/1/1
f 6/2/1 4/2/1 3/2/1
f 6/1/1 3/1/1 5/1/1
f 7/2/1 4/2/1 6/2/1
f 8/1/2 9/1/2 10/1/2
f 10/1/2 9/1/2 11/1/2
f 14/1/3 13/1/3 12/1/3
f 15/1/3 13/1/3 14/1/3
f 16/1/3 14/1/3 12/1/3
f 17/2/3 15/2/3 14/2/3
f 17/1/3 14/1/3 16/1/3
f 18/2/3 15/2/3 17/2/3
f 19/1/3 16/1/3 12/1/3
f 19/2/3 17/2/3 16/2/3
f 20/1/3 18/1/3 17/1/3
f 20/2/3 17/2/3 19/2/3
f 21/1/3 19/1/3 12/1/3
f 21/1/3 20/1/3 19/1/3
f 22/1/3 18/1/3 20/1/3
f 22/1/3 20/1/3 21/1/3
f 23/1/4 24/1/4 26/1/4
f 24/2/4 25/2/4 26/2/4
f 26/2/4 25/2/4 27/2/4
f 23/1/4 26/1/4 28/1/4
f 26/1/4 27/1/4 28/1/4
f 28/1/4 27/1/4 29/1/4
f 32/1/5 31/1/5 30/1/5
f 33/1/5 31/1/5 32/1/5
f 34/1/6 35/1/6 38/1/6
f 35/2/6 36/2/6 38/2/6
f 38/2/6 36/2/6 39/2/6
f 38/1/6 39/1/6 40/1/6
f 39/2/6 36/2/6 40/2/6
f 40/2/6 36/2/6 41/2/6
f 41/2/6 36/2/6 42/2/6
f 36/1/6 37/1/6 43/1/6
f 42/2/6 36/2/6 43/2/6
f 41/2/6 42/2/6 44/2/6
f 40/1/6 41/1/6 44/1/6
f 44/2/6 42/2/6 45/2/6
f 45/2/6 42/2/6 46/2/6
f 42/1/6 43/1/6 47/1/6
f 46/2/6 42/2/6 47/2/6
f 45/2/6 46/2/6 48/2/6
f 44/1/6 45/1/6 48/1/6
f 48/2/6 46/2/6 49/2/6
f 49/2/6 46/2/6 50/2/6
f 46/1/6 47/1/6 51/1/6
f 50/2/6 46/2/6 51/2/6
f 49/2/6 50/2/6 52/2/6
f 48/1/6 49/1/6 52/1/6
f 52/2/6 50/2/6 53/2/6
f 53/2/6 50/2/6 54/2/6
f 50/1/6 51/1/6 55/1/6
f 54/2/6 50/2/6 55/2/6
f 53/2/6 54/2/6 56/2/6
f 52/1/6 53/1/6 56/1/6
f 56/2/6 54/2/6 57/2/6
f 57/2/6 54/2/6 58/2/6
f 54/1/6 55/1/6 59/1/6
f 58/2/6 54/2/6 59/2/6
f 57/2/6 58/2/6 60/2/6
f 56/1/6 57/1/6 60/1/6
f 60/2/6 58/2/6 61/2/6
f 61/2/6 58/2/6 62/2/6
f 58/1/6 59/1/6 63/1/6
f 62/2/6 58/2/6 63/2/6
f 61/2/6 62/2/6 64/2/6
f 60/1/6 61/1/6 64/1/6
f 62/1/6 63/1/6 65/1/6
f 64/2/6 62/2/6 65/2/6
f 34/1/6 38/1/6 66/1/6
f 38/1/6 40/1/6 66/1/6
f 64/1/6 65/1/6 66/1/6
f 60/1/6 64/1/6 66/1/6
f 56/1/6 60/1/6 66/1/6
f 40/1/6 44/1/6 66/1/6
f 52/1/6 56/1/6 66/1/6
f 44/1/6 48/1/6 66/1/6
f 48/1/6 52/1/6 66/1/6
f 66/1/6 65/1/6 67/1/6
f 66/2/6 67/2/6 68/2/6
f 67/1/6 65/1/6 68/1/6
f 68/1/6 65/1/6 69/1/6
f 68/2/6 69/2/6 70/2/6
f 69/1/6 65/1/6 70/1/6
f 70/1/6 65/1/6 71/1/6
f 70/2/6 71/2/6 72/2/6
f 71/1/6 65/1/6 72/1/6
f 72/1/6 65/1/6 73/1/6
f 72/2/6 73/2/6 74/2/6
f 73/1/6 65/1/6 74/1/6
f 74/1/6 65/1/6 75/1/6
f 74/2/6 75/2/6 76/2/6
f 75/1/6 65/1/6 76/1/6
f 76/1/6 65/1/6 77/1/6
f 66/2/6 68/2/6 78/2/6
f 68/2/6 70/2/6 78/2/6
f 76/2/6 77/2/6 78/2/6
f 74/2/6 76/2/6 78/2/6
f 72/2/6 74/2/6 78/2/6
f 70/2/6 72/2/6 78/2/6
f 77/1/6 65/1/6 79/1/6
f 78/2/6 77/2/6 79/2/6
f 43/1/6 37/1/6 80/1/6
f 79/1/6 65/1/6 80/1/6
f 65/1/6 63/1/6 80/1/6
f 63/1/6 59/1/6 80/1/6
f 47/1/6 43/1/6 80/1/6
f 55/1/6 51/1/6 80/1/6
f 51/1/6 47/1/6 80/1/6
f 59/1/6 55/1/6 80/1/6
