# MagicaVoxel @ Ephtracy

# group
o 

# material
mtllib lava_background-35.mtl
usemtl palette

# normals
vn -1 0 0
vn 1 0 0
vn 0 0 1
vn 0 0 -1
vn 0 -1 0
vn 0 1 0

# texcoords
vt 0.0449219 0.5
vt 0.0683594 0.5

# verts
v 3.6 0 -10.8
v 3.6 0 -18
v 3.6 0.5 -10.8
v 3.6 0.5 -18
v 10.8 0 -10.8
v 10.8 0 -18
v 10.8 0.4 -17.9
v 10.8 0.4 -18
v 10.8 0.5 -10.8
v 10.8 0.5 -17.9
v 10.8 0.5 -18
v 3.6 0 -10.8
v 3.6 0.5 -10.8
v 10.8 0 -10.8
v 10.8 0.5 -10.8
v 3.6 0 -18
v 3.6 0.5 -18
v 3.7 0.4 -18
v 3.7 0.5 -18
v 10.8 0 -18
v 10.8 0.4 -18
v 10.8 0.5 -18
v 3.6 0 -10.8
v 10.8 0 -10.8
v 3.6 0 -18
v 10.8 0 -18
v 3.6 0.5 -10.8
v 10.8 0.5 -10.8
v 5.7 0.5 -17.3
v 7.9 0.5 -17.3
v 5 0.5 -17.4
v 5.7 0.5 -17.4
v 7.9 0.5 -17.4
v 8.9 0.5 -17.4
v 4.6 0.5 -17.5
v 5 0.5 -17.5
v 8.9 0.5 -17.5
v 9.4 0.5 -17.5
v 4.4 0.5 -17.6
v 4.6 0.5 -17.6
v 9.4 0.5 -17.6
v 9.8 0.5 -17.6
v 4.1 0.5 -17.7
v 4.4 0.5 -17.7
v 9.8 0.5 -17.7
v 10.4 0.5 -17.7
v 3.9 0.5 -17.8
v 4.1 0.5 -17.8
v 10.4 0.5 -17.8
v 10.6 0.5 -17.8
v 3.7 0.5 -17.9
v 3.9 0.5 -17.9
v 10.6 0.5 -17.9
v 10.8 0.5 -17.9
v 3.6 0.5 -18
v 3.7 0.5 -18
v 10.8 0.5 -18

# faces
f 3/1/1 2/1/1 1/1/1
f 4/1/1 2/1/1 3/1/1
f 5/1/2 6/1/2 7/1/2
f 7/1/2 6/1/2 8/1/2
f 5/1/2 7/1/2 9/1/2
f 7/2/2 8/2/2 10/2/2
f 9/1/2 7/1/2 10/1/2
f 10/2/2 8/2/2 11/2/2
f 14/1/3 13/1/3 12/1/3
f 15/1/3 13/1/3 14/1/3
f 16/1/4 17/1/4 18/1/4
f 18/1/4 17/1/4 19/1/4
f 16/1/4 18/1/4 20/1/4
f 18/2/4 19/2/4 21/2/4
f 20/1/4 18/1/4 21/1/4
f 21/2/4 19/2/4 22/2/4
f 25/1/5 24/1/5 23/1/5
f 26/1/5 24/1/5 25/1/5
f 27/1/6 28/1/6 29/1/6
f 29/1/6 28/1/6 30/1/6
f 27/1/6 29/1/6 31/1/6
f 29/2/6 30/2/6 32/2/6
f 31/1/6 29/1/6 32/1/6
f 30/1/6 28/1/6 33/1/6
f 32/2/6 30/2/6 33/2/6
f 33/1/6 28/1/6 34/1/6
f 27/1/6 31/1/6 35/1/6
f 31/2/6 32/2/6 36/2/6
f 35/1/6 31/1/6 36/1/6
f 32/2/6 33/2/6 36/2/6
f 33/2/6 34/2/6 36/2/6
f 34/1/6 28/1/6 37/1/6
f 36/2/6 34/2/6 37/2/6
f 37/1/6 28/1/6 38/1/6
f 27/1/6 35/1/6 39/1/6
f 35/2/6 36/2/6 40/2/6
f 39/1/6 35/1/6 40/1/6
f 36/2/6 37/2/6 40/2/6
f 37/2/6 38/2/6 40/2/6
f 38/1/6 28/1/6 41/1/6
f 40/2/6 38/2/6 41/2/6
f 41/1/6 28/1/6 42/1/6
f 27/1/6 39/1/6 43/1/6
f 39/2/6 40/2/6 44/2/6
f 43/1/6 39/1/6 44/1/6
f 40/2/6 41/2/6 44/2/6
f 41/2/6 42/2/6 44/2/6
f 42/1/6 28/1/6 45/1/6
f 44/2/6 42/2/6 45/2/6
f 45/1/6 28/1/6 46/1/6
f 27/1/6 43/1/6 47/1/6
f 43/2/6 44/2/6 48/2/6
f 47/1/6 43/1/6 48/1/6
f 44/2/6 45/2/6 48/2/6
f 45/2/6 46/2/6 48/2/6
f 46/1/6 28/1/6 49/1/6
f 48/2/6 46/2/6 49/2/6
f 49/1/6 28/1/6 50/1/6
f 27/1/6 47/1/6 51/1/6
f 47/2/6 48/2/6 52/2/6
f 51/1/6 47/1/6 52/1/6
f 48/2/6 49/2/6 52/2/6
f 49/2/6 50/2/6 52/2/6
f 50/1/6 28/1/6 53/1/6
f 52/2/6 50/2/6 53/2/6
f 53/1/6 28/1/6 54/1/6
f 27/1/6 51/1/6 55/1/6
f 51/2/6 52/2/6 56/2/6
f 55/1/6 51/1/6 56/1/6
f 52/2/6 53/2/6 56/2/6
f 53/2/6 54/2/6 56/2/6
f 56/2/6 54/2/6 57/2/6
