# MagicaVoxel @ Ephtracy

# group
o 

# material
mtllib mountain-3.mtl
usemtl palette

# normals
vn 0 0 1
vn 0 0 -1
vn 0 -1 0
vn 0 1 0
vn -1 0 0
vn 1 0 0

# texcoords
vt 0.337891 0.5
vt 0.966797 0.5
vt 0.970703 0.5

# verts
v 19 8.9 -21.8
v 19 9 -21.8
v 19.1 9 -21.8
v 19.1 9.1 -21.8
v 19.2 8.9 -21.8
v 19.2 9.1 -21.8
v 19 9 -21.9
v 19 9.1 -21.9
v 19.1 9 -21.9
v 19.1 9.1 -21.9
v 19.1 9 -21.9
v 19.1 9.1 -21.9
v 19.2 9 -21.9
v 19.2 9.1 -21.9
v 19 9 -22
v 19 9.1 -22
v 19.1 8.9 -22
v 19.1 9 -22
v 19.1 9.1 -22
v 19.2 8.9 -22
v 19.2 9 -22
v 19 8.9 -22.1
v 19 9 -22.1
v 19.1 8.9 -22.1
v 19.1 9 -22.1
v 19 8.9 -21.8
v 19.2 8.9 -21.8
v 19.1 8.9 -21.9
v 19.2 8.9 -21.9
v 19 8.9 -22
v 19.1 8.9 -22
v 19.2 8.9 -22
v 19 8.9 -22.1
v 19.1 8.9 -22.1
v 19 9 -21.8
v 19.1 9 -21.8
v 19 9 -21.9
v 19.1 9 -21.9
v 19.2 9 -21.9
v 19 9 -22
v 19.1 9 -22
v 19.2 9 -22
v 19 9 -22.1
v 19.1 9 -22.1
v 19.1 9.1 -21.8
v 19.2 9.1 -21.8
v 19 9.1 -21.9
v 19.1 9.1 -21.9
v 19.2 9.1 -21.9
v 19 9.1 -22
v 19.1 9.1 -22
v 19 8.9 -21.8
v 19 8.9 -22
v 19 8.9 -22.1
v 19 9 -21.8
v 19 9 -21.9
v 19 9 -22
v 19 9 -22.1
v 19 9.1 -21.9
v 19 9.1 -22
v 19.1 9 -21.8
v 19.1 9 -21.9
v 19.1 9.1 -21.8
v 19.1 9.1 -21.9
v 19.1 8.9 -22
v 19.1 8.9 -22.1
v 19.1 9 -21.9
v 19.1 9 -22
v 19.1 9 -22.1
v 19.1 9.1 -21.9
v 19.1 9.1 -22
v 19.2 8.9 -21.8
v 19.2 8.9 -21.9
v 19.2 8.9 -22
v 19.2 9 -21.9
v 19.2 9 -22
v 19.2 9.1 -21.8
v 19.2 9.1 -21.9

# faces
f 3/2/1 2/2/1 1/2/1
f 5/2/1 3/2/1 1/2/1
f 5/2/1 4/2/1 3/2/1
f 6/2/1 4/2/1 5/2/1
f 9/2/1 8/2/1 7/2/1
f 10/2/1 8/2/1 9/2/1
f 11/2/2 12/2/2 13/2/2
f 13/2/2 12/2/2 14/2/2
f 15/2/2 16/2/2 18/2/2
f 18/2/2 16/2/2 19/2/2
f 17/3/2 18/3/2 20/3/2
f 20/3/2 18/3/2 21/3/2
f 22/1/2 23/1/2 24/1/2
f 24/1/2 23/1/2 25/1/2
f 28/2/3 27/2/3 26/2/3
f 29/2/3 27/2/3 28/2/3
f 30/2/3 28/2/3 26/2/3
f 31/3/3 29/3/3 28/3/3
f 31/2/3 28/2/3 30/2/3
f 32/3/3 29/3/3 31/3/3
f 33/1/3 31/1/3 30/1/3
f 34/1/3 31/1/3 33/1/3
f 35/2/4 36/2/4 37/2/4
f 37/2/4 36/2/4 38/2/4
f 38/3/4 39/3/4 41/3/4
f 41/3/4 39/3/4 42/3/4
f 40/1/4 41/1/4 43/1/4
f 43/1/4 41/1/4 44/1/4
f 45/2/4 46/2/4 48/2/4
f 48/2/4 46/2/4 49/2/4
f 47/2/4 48/2/4 50/2/4
f 50/2/4 48/2/4 51/2/4
f 55/2/5 53/2/5 52/2/5
f 56/2/5 53/2/5 55/2/5
f 57/1/5 54/1/5 53/1/5
f 57/2/5 53/2/5 56/2/5
f 58/1/5 54/1/5 57/1/5
f 59/2/5 57/2/5 56/2/5
f 60/2/5 57/2/5 59/2/5
f 63/2/5 62/2/5 61/2/5
f 64/2/5 62/2/5 63/2/5
f 65/1/6 66/1/6 68/1/6
f 68/1/6 66/1/6 69/1/6
f 67/2/6 68/2/6 70/2/6
f 70/2/6 68/2/6 71/2/6
f 72/2/6 73/2/6 75/2/6
f 73/3/6 74/3/6 75/3/6
f 75/3/6 74/3/6 76/3/6
f 72/2/6 75/2/6 77/2/6
f 77/2/6 75/2/6 78/2/6
